<?xml version="1.0" encoding="UTF-8" standalone="no"?>
<svg
   xmlns:dc="http://purl.org/dc/elements/1.1/"
   xmlns:cc="http://creativecommons.org/ns#"
   xmlns:rdf="http://www.w3.org/1999/02/22-rdf-syntax-ns#"
   xmlns:svg="http://www.w3.org/2000/svg"
   xmlns="http://www.w3.org/2000/svg"
   xmlns:sodipodi="http://sodipodi.sourceforge.net/DTD/sodipodi-0.dtd"
   xmlns:inkscape="http://www.inkscape.org/namespaces/inkscape"
   viewBox="0 0 348 348"
   fill="none"
   version="1.1"
   id="svg827"
   sodipodi:docname="Candy Land.svg"
   inkscape:version="0.92.3 (2405546, 2018-03-11)">
  <metadata
     id="metadata833">
    <rdf:RDF>
      <cc:Work
         rdf:about="">
        <dc:format>image/svg+xml</dc:format>
        <dc:type
           rdf:resource="http://purl.org/dc/dcmitype/StillImage" />
      </cc:Work>
    </rdf:RDF>
  </metadata>
  <defs
     id="defs831" />
  <sodipodi:namedview
     pagecolor="#ffffff"
     bordercolor="#666666"
     borderopacity="1"
     objecttolerance="10"
     gridtolerance="10"
     guidetolerance="10"
     inkscape:pageopacity="0"
     inkscape:pageshadow="2"
     inkscape:window-width="1600"
     inkscape:window-height="845"
     id="namedview829"
     showgrid="false"
     inkscape:zoom="1.3735752"
     inkscape:cx="268.9823"
     inkscape:cy="171.4514"
     inkscape:window-x="-8"
     inkscape:window-y="-8"
     inkscape:window-maximized="1"
     inkscape:current-layer="svg827" />
  <path
     d="M5.079 5.776h336.913v337.67H5.08z"
     stroke-width="2"
     stroke="#000"
     id="path815" />
  <path
     d="M282.734 40.554c0-8.376 6.966-15.165 15.56-15.165 4.126 0 8.084 1.597 11.001 4.441 2.918 2.844 4.558 6.702 4.558 10.724 0 8.376-6.966 15.165-15.56 15.165-8.593 0-15.559-6.79-15.559-15.165z"
     stroke-width="2"
     stroke="#000"
     id="path817" />
  <path
     fill="#fff"
     stroke="#000"
     stroke-width="4"
     stroke-linecap="round"
     stroke-linejoin="round"
     d="M232.152 135.347h66.984v80.993h-66.984zM46 70.949h134.924v207.915H46z"
     id="path819" />
  <path
     fill="#000"
     stroke="#000"
     stroke-width="4"
     stroke-linecap="round"
     stroke-linejoin="round"
     d="M92.475 150.407h44.237v44.237H92.475z"
     id="path821" />
  <g
     aria-label="00"
     style="font-weight:400;font-size:40px;line-height:1.25;font-family:'Special Elite';-inkscape-font-specification:'Special Elite, Normal';font-variant-ligatures:normal;font-variant-caps:normal;font-variant-numeric:normal;font-feature-settings:normal;text-align:start;letter-spacing:0;word-spacing:0;fill:#000000"
     id="text825">
    <path
       d="m 263.69681,179.18065 q 0,0.21484 -0.11719,0.35156 -0.0977,0.11719 -0.29297,0.11719 -0.19531,0 -0.37109,-0.0781 -0.17578,-0.0976 -0.39063,-0.0976 -0.0391,0.0586 -0.0781,0.11719 -0.0195,0.0586 -0.0195,0.13671 0,0.13672 0.0976,0.15625 0.11719,0 0.23438,0.0195 0.11719,0 0.21484,0.0586 0.11719,0.0586 0.11719,0.27344 0,0.21484 -0.0586,0.66406 -0.0586,0.44922 -0.17579,0.9375 -0.0976,0.48828 -0.23437,0.89844 -0.11719,0.41015 -0.25391,0.54687 -0.17578,0.19531 -0.27343,0.3711 -0.0977,0.15625 -0.0781,0.41015 l 0.0195,0.50781 q 0.0195,0.33204 -0.0976,0.52735 -0.0977,0.17578 -0.23438,0.33203 -0.11719,0.13672 -0.21484,0.27344 -0.0977,0.11718 -0.0977,0.3125 0,0.0976 0.0195,0.15625 -0.2539,-0.0977 -0.50781,-0.15625 -0.25391,-0.0781 -0.52734,-0.0781 -0.29297,0 -0.52735,0.11719 -0.23437,0.11719 -0.37109,0.39062 0,0.0977 0.0391,0.19532 0.0391,0.0976 0.15625,0.0976 0.19531,0 0.35156,-0.15625 0.15625,-0.15625 0.35157,-0.15625 0.13671,0 0.17578,0.13672 0.0391,0.13672 0.0391,0.23438 0,0.2539 -0.0781,0.42968 -0.0781,0.17579 -0.37109,0.17579 -0.17578,0 -0.35156,-0.0391 -0.15625,-0.0391 -0.33203,-0.0391 l -0.15625,0.11719 q 0.11718,0.33203 0.44922,0.39062 -0.46875,0.52735 -1.09375,1.07422 -0.60547,0.54688 -1.3086,0.9961 -0.70312,0.44921 -1.46484,0.74218 -0.76172,0.27344 -1.48438,0.27344 -0.46875,0 -1.28906,-0.13672 -0.80078,-0.13672 -1.66016,-0.33203 -0.85937,-0.21484 -1.64062,-0.46875 -0.76172,-0.27344 -1.15234,-0.54687 -0.25391,-0.17579 -0.29297,-0.29297 -0.0195,-0.11719 -0.0391,-0.19532 -0.0195,-0.0976 -0.11718,-0.17578 -0.0977,-0.0976 -0.46875,-0.19531 -0.82032,-0.23437 -1.19141,-0.56641 -0.37109,-0.33203 -0.52734,-0.68359 -0.15625,-0.37109 -0.19532,-0.70312 -0.0391,-0.35157 -0.21484,-0.58594 -0.17578,-0.23438 -0.37109,-0.48828 -0.19532,-0.25391 -0.3711,-0.52735 -0.17578,-0.27343 -0.29297,-0.54687 -0.11718,-0.29297 -0.11718,-0.60547 0,-0.23438 0.17578,-0.37109 0.19531,-0.15625 0.19531,-0.33204 0,-0.0586 -0.0391,-0.11718 -0.0391,-0.0586 -0.0781,-0.0977 -0.21484,-0.23437 -0.35156,-0.41016 -0.13672,-0.17578 -0.21484,-0.37109 -0.0781,-0.19531 -0.13672,-0.41016 -0.0391,-0.23437 -0.0586,-0.54687 -0.0586,-0.625 -0.2539,-1.23047 -0.17578,-0.625 -0.17578,-1.25 0,-0.48828 0.0195,-0.97656 0.0195,-0.48828 0.0195,-0.97656 0,-0.44922 0.0977,-0.87891 0.11718,-0.44922 0.11718,-0.87891 0,-0.3125 -0.0586,-0.60547 -0.0391,-0.29296 -0.0391,-0.60546 0,-0.72266 0.19531,-1.40625 0.21484,-0.70313 0.44922,-1.38672 0.23437,-0.70313 0.42969,-1.40625 0.21484,-0.70313 0.21484,-1.44532 0,-0.19531 -0.0195,-0.39062 -0.0195,-0.19531 -0.0195,-0.41016 0,-0.37109 0.13672,-0.48828 0.15625,-0.11719 0.3125,-0.13672 0.17578,-0.0391 0.3125,-0.0781 0.15625,-0.0391 0.15625,-0.27344 0,-0.13672 -0.0391,-0.25391 -0.0195,-0.13671 -0.0195,-0.27343 0,-0.15625 0.19531,-0.33203 0.21485,-0.19532 0.46875,-0.41016 0.27344,-0.21484 0.52735,-0.42969 0.2539,-0.23437 0.35156,-0.48828 0.0977,-0.23437 0.3125,-0.3125 0.23438,-0.0781 0.44922,-0.11719 0.23437,-0.0586 0.41016,-0.11718 0.17578,-0.0781 0.17578,-0.3125 0,-0.11719 -0.0586,-0.29297 0.29297,0.13672 0.60547,0.19531 0.3125,0.0391 0.64453,0.0391 0.42969,0 0.70313,-0.11719 0.29297,-0.11718 0.52734,-0.2539 0.23438,-0.15625 0.48828,-0.27344 0.27344,-0.13672 0.66407,-0.13672 0.50781,0 0.97656,-0.15625 0.46875,-0.17578 0.97656,-0.17578 0.23438,0 0.85938,0.13672 0.625,0.13672 1.26953,0.35156 0.66406,0.21485 1.17187,0.46875 0.52735,0.25391 0.56641,0.48828 0.13672,-0.0391 0.2539,-0.0391 0.11719,0 0.23438,0 0.33203,0 0.58594,0.0781 0.27343,0.0781 0.48828,0.19531 0.23437,0.11719 0.44922,0.27344 0.23437,0.15625 0.48828,0.3125 l 0.0195,0.11718 0.0195,0.0977 q 0,0.25391 -0.13672,0.46875 -0.11719,0.21484 -0.17578,0.44922 0.0586,0.17578 0.21484,0.2539 0.15625,0.0781 0.3125,0.15625 0.15625,0.0781 0.29297,0.17579 0.13672,0.0976 0.15625,0.3125 0.0195,0.21484 0.0781,0.35156 0.0781,0.11719 0.35156,0.13672 l -0.0195,0.41015 v 0.19532 q 0,0.68359 0.21484,1.17187 0.23438,0.48828 0.50782,0.87891 0.29296,0.39062 0.50781,0.76172 0.23437,0.35156 0.23437,0.76171 0,0.39063 -0.19531,0.74219 -0.17578,0.33203 -0.17578,0.64453 0,0.11719 0.13672,0.33203 0.13672,0.19532 0.29297,0.46875 0.15625,0.27344 0.29297,0.60547 0.13671,0.3125 0.13671,0.6836 0,0.64453 -0.54687,0.97656 -0.0391,0.11719 -0.0391,0.19531 0,0.17578 0.0976,0.27344 0.0977,0.0977 0.19532,0.17578 0.11718,0.0781 0.21484,0.19531 0.0977,0.11719 0.0977,0.35157 0,0.23437 -0.0977,0.41015 -0.0781,0.17578 -0.19531,0.33203 -0.0977,0.13672 -0.19532,0.27344 -0.0781,0.11719 -0.0781,0.25391 0,0.17578 0.0977,0.3125 0.0976,0.11718 0.19531,0.2539 0.11719,0.11719 0.21484,0.25391 0.0977,0.13672 0.0977,0.3125 z m -0.56641,-4.27734 q 0,-0.21485 -0.17578,-0.29297 -0.17578,-0.0781 -0.33203,-0.0781 -0.39063,0 -0.39063,0.35156 0,0.17579 0.13672,0.25391 0.15625,0.0781 0.3125,0.0781 0.15625,0 0.29297,-0.0781 0.15625,-0.0781 0.15625,-0.23437 z m -2.1289,1.79687 q 0,-0.39062 -0.15625,-0.72266 -0.13672,-0.35156 -0.13672,-0.74218 0,-0.44922 0.0391,-0.87891 0.0391,-0.42969 0.0391,-0.87891 0,-0.29296 0.0586,-0.5664 0.0781,-0.27344 0.0781,-0.54688 0,-0.3125 -0.19531,-0.83984 -0.17578,-0.52734 -0.42969,-1.09375 -0.25391,-0.58594 -0.52734,-1.11328 -0.25391,-0.52735 -0.39063,-0.85938 -0.0195,-0.0195 -0.0586,-0.11718 -0.0391,-0.11719 -0.0977,-0.21485 -0.0586,-0.11719 -0.11719,-0.19531 -0.0391,-0.0977 -0.0781,-0.0977 -0.0195,0.0391 -0.0977,0.0391 -0.0586,0 -0.39062,-0.25391 -0.3125,-0.25391 -0.6836,-0.625 -0.35156,-0.39063 -0.64453,-0.80078 -0.27343,-0.42969 -0.27343,-0.78125 0,-0.0977 0.0195,-0.13672 -0.27344,0 -0.66407,-0.0586 -0.37109,-0.0781 -0.76171,-0.21485 -0.3711,-0.13672 -0.6836,-0.35156 -0.29297,-0.21484 -0.39062,-0.48828 -0.48828,0.0586 -0.95703,0.21484 -0.44922,0.13672 -0.89844,0.29297 -0.44922,0.13672 -0.91797,0.25391 -0.46875,0.11718 -0.95703,0.11718 -0.11719,0 -0.23438,0 -0.0977,-0.0195 -0.21484,-0.0391 0.0586,0.11719 0.0586,0.25391 0,0.21484 -0.15625,0.27344 -0.15625,0.0391 -0.37109,0.0391 -0.15625,0 -0.29297,0 -0.11719,-0.0195 -0.21484,-0.0195 l -0.13672,0.0195 0.0195,0.17578 v 0.0781 q 0,0.23438 -0.13672,0.39063 -0.11719,0.15625 -0.29297,0.27344 -0.17578,0.11718 -0.37109,0.23437 -0.19531,0.0977 -0.33203,0.23438 0.23437,0.0391 0.23437,0.29297 0,0.33203 -0.2539,0.82031 -0.25391,0.46875 -0.56641,1.09375 -0.29297,0.60547 -0.54688,1.32812 -0.2539,0.70313 -0.2539,1.48438 -0.0586,0.0976 -0.15625,0.17578 -0.0977,0.0586 -0.21485,0.0586 -0.15625,0 -0.3125,-0.0781 -0.15625,-0.0977 -0.33203,-0.0977 -0.17578,0 -0.17578,0.13672 0,0.21484 0.11719,0.37109 0.13672,0.15625 0.29297,0.33204 0.17578,0.17578 0.29297,0.37109 0.13672,0.19531 0.13672,0.46875 0,0.68359 -0.13672,0.95703 -0.11719,0.25391 -0.27344,0.39063 -0.13672,0.11718 -0.25391,0.29296 -0.11718,0.15625 -0.11718,0.64454 0,0.11718 0,0.23437 0,0.0977 0.0195,0.19531 -0.25391,0.33203 -0.56641,0.54688 0.29297,0.0976 0.48828,0.33203 0.19531,0.21484 0.3125,0.46875 0.11719,0.23437 0.17578,0.48828 0.0586,0.25391 0.0586,0.41016 0,0.58593 0.0977,1.17187 0.11719,0.56641 0.11719,1.15235 0,0.52734 -0.0977,0.72265 -0.0781,0.19531 -0.19531,0.25391 -0.11719,0.0586 -0.21484,0.0586 -0.0781,-0.0195 -0.0781,0.0977 0,0.13672 0.0977,0.13672 0.15625,0 0.33203,-0.0977 0.17578,-0.0977 0.3125,-0.17578 0.0391,0.15625 0.0391,0.44922 0,0.29297 0,0.58594 0.0195,0.29296 0.0781,0.52734 0.0781,0.21484 0.27344,0.25391 0.29296,0.0586 0.41015,0.19531 0.11719,0.13672 0.17578,0.3125 0.0781,0.17578 0.15625,0.37109 0.0781,0.17578 0.3125,0.3125 0.3125,0.17578 0.58594,0.44922 0.27344,0.25391 0.56641,0.48828 0.29297,0.23438 0.60547,0.42969 0.33203,0.17578 0.72265,0.19531 0.6836,0.0586 1.36719,0.17578 0.70312,0.0977 1.38672,0.25391 0.2539,0.0781 0.58594,0.0781 0.39062,0 0.76171,-0.0976 0.39063,-0.11719 0.76172,-0.23438 0.39063,-0.13672 0.78125,-0.23437 0.39063,-0.11719 0.78125,-0.11719 0.23438,0 0.50782,0.0586 -0.0195,-0.0391 -0.0195,-0.13671 0,-0.21485 0.21485,-0.54688 0.23437,-0.35156 0.54687,-0.68359 0.3125,-0.33203 0.64453,-0.56641 0.33204,-0.25391 0.54688,-0.29297 -0.0586,-0.0976 -0.0781,-0.21484 0,-0.13672 0,-0.25391 0,-0.29297 0.0977,-0.64453 0.0977,-0.35156 0.39063,-0.48828 0.13671,-0.0586 0.21484,-0.23438 0.0977,-0.19531 0.13672,-0.44921 0.0586,-0.25391 0.0781,-0.54688 0.0195,-0.3125 0.0195,-0.60547 0,-0.35156 -0.0195,-0.64453 0,-0.3125 0,-0.46875 v -0.19531 q 0.29297,-0.19531 0.41016,-0.56641 0.11719,-0.39062 0.15625,-0.76172 0.0586,-0.37109 0.0781,-0.66406 0.0195,-0.29297 0.0977,-0.35156 0.23438,-0.17578 0.23438,-0.42969 z m -3.4375,11.11328 h -0.0781 q -0.39062,0 -0.64453,0.25391 -0.25391,0.2539 -0.42969,0.60547 0.0586,-0.19532 0.25391,-0.19532 0,0.0977 -0.0781,0.15625 -0.0781,0.0391 -0.17578,0.0391 0.23438,0 0.46875,0.0391 0.23438,0.0195 0.46875,0.0195 0.17578,0 0.27344,-0.0781 0.0977,-0.0977 0.13672,-0.23438 0.0391,-0.13672 0.0391,-0.29297 0,-0.15625 0,-0.29297 z"
       style=""
       id="path849" />
    <path
       d="m 288.14993,179.18065 q 0,0.21484 -0.11718,0.35156 -0.0977,0.11719 -0.29297,0.11719 -0.19532,0 -0.3711,-0.0781 -0.17578,-0.0976 -0.39062,-0.0976 -0.0391,0.0586 -0.0781,0.11719 -0.0195,0.0586 -0.0195,0.13671 0,0.13672 0.0977,0.15625 0.11719,0 0.23437,0.0195 0.11719,0 0.21485,0.0586 0.11718,0.0586 0.11718,0.27344 0,0.21484 -0.0586,0.66406 -0.0586,0.44922 -0.17578,0.9375 -0.0977,0.48828 -0.23438,0.89844 -0.11718,0.41015 -0.2539,0.54687 -0.17578,0.19531 -0.27344,0.3711 -0.0977,0.15625 -0.0781,0.41015 l 0.0195,0.50781 q 0.0195,0.33204 -0.0977,0.52735 -0.0977,0.17578 -0.23437,0.33203 -0.11719,0.13672 -0.21485,0.27344 -0.0976,0.11718 -0.0976,0.3125 0,0.0976 0.0195,0.15625 -0.25391,-0.0977 -0.50782,-0.15625 -0.2539,-0.0781 -0.52734,-0.0781 -0.29297,0 -0.52734,0.11719 -0.23438,0.11719 -0.3711,0.39062 0,0.0977 0.0391,0.19532 0.0391,0.0976 0.15625,0.0976 0.19531,0 0.35156,-0.15625 0.15625,-0.15625 0.35156,-0.15625 0.13672,0 0.17578,0.13672 0.0391,0.13672 0.0391,0.23438 0,0.2539 -0.0781,0.42968 -0.0781,0.17579 -0.37109,0.17579 -0.17579,0 -0.35157,-0.0391 -0.15625,-0.0391 -0.33203,-0.0391 l -0.15625,0.11719 q 0.11719,0.33203 0.44922,0.39062 -0.46875,0.52735 -1.09375,1.07422 -0.60547,0.54688 -1.30859,0.9961 -0.70313,0.44921 -1.46485,0.74218 -0.76172,0.27344 -1.48437,0.27344 -0.46875,0 -1.28906,-0.13672 -0.80079,-0.13672 -1.66016,-0.33203 -0.85938,-0.21484 -1.64063,-0.46875 -0.76171,-0.27344 -1.15234,-0.54687 -0.25391,-0.17579 -0.29297,-0.29297 -0.0195,-0.11719 -0.0391,-0.19532 -0.0195,-0.0976 -0.11719,-0.17578 -0.0976,-0.0976 -0.46875,-0.19531 -0.82031,-0.23437 -1.1914,-0.56641 -0.3711,-0.33203 -0.52735,-0.68359 -0.15625,-0.37109 -0.19531,-0.70312 -0.0391,-0.35157 -0.21484,-0.58594 -0.17579,-0.23438 -0.3711,-0.48828 -0.19531,-0.25391 -0.37109,-0.52735 -0.17578,-0.27343 -0.29297,-0.54687 -0.11719,-0.29297 -0.11719,-0.60547 0,-0.23438 0.17578,-0.37109 0.19532,-0.15625 0.19532,-0.33204 0,-0.0586 -0.0391,-0.11718 -0.0391,-0.0586 -0.0781,-0.0977 -0.21485,-0.23437 -0.35156,-0.41016 -0.13672,-0.17578 -0.21485,-0.37109 -0.0781,-0.19531 -0.13672,-0.41016 -0.0391,-0.23437 -0.0586,-0.54687 -0.0586,-0.625 -0.25391,-1.23047 -0.17578,-0.625 -0.17578,-1.25 0,-0.48828 0.0195,-0.97656 0.0195,-0.48828 0.0195,-0.97656 0,-0.44922 0.0977,-0.87891 0.11719,-0.44922 0.11719,-0.87891 0,-0.3125 -0.0586,-0.60547 -0.0391,-0.29296 -0.0391,-0.60546 0,-0.72266 0.19531,-1.40625 0.21485,-0.70313 0.44922,-1.38672 0.23438,-0.70313 0.42969,-1.40625 0.21484,-0.70313 0.21484,-1.44532 0,-0.19531 -0.0195,-0.39062 -0.0195,-0.19531 -0.0195,-0.41016 0,-0.37109 0.13672,-0.48828 0.15625,-0.11719 0.3125,-0.13672 0.17578,-0.0391 0.3125,-0.0781 0.15625,-0.0391 0.15625,-0.27344 0,-0.13672 -0.0391,-0.25391 -0.0195,-0.13671 -0.0195,-0.27343 0,-0.15625 0.19531,-0.33203 0.21484,-0.19532 0.46875,-0.41016 0.27344,-0.21484 0.52734,-0.42969 0.25391,-0.23437 0.35157,-0.48828 0.0976,-0.23437 0.3125,-0.3125 0.23437,-0.0781 0.44921,-0.11719 0.23438,-0.0586 0.41016,-0.11718 0.17578,-0.0781 0.17578,-0.3125 0,-0.11719 -0.0586,-0.29297 0.29297,0.13672 0.60547,0.19531 0.3125,0.0391 0.64453,0.0391 0.42969,0 0.70312,-0.11719 0.29297,-0.11718 0.52735,-0.2539 0.23437,-0.15625 0.48828,-0.27344 0.27344,-0.13672 0.66406,-0.13672 0.50781,0 0.97656,-0.15625 0.46875,-0.17578 0.97657,-0.17578 0.23437,0 0.85937,0.13672 0.625,0.13672 1.26953,0.35156 0.66406,0.21485 1.17188,0.46875 0.52734,0.25391 0.5664,0.48828 0.13672,-0.0391 0.25391,-0.0391 0.11719,0 0.23437,0 0.33204,0 0.58594,0.0781 0.27344,0.0781 0.48828,0.19531 0.23438,0.11719 0.44922,0.27344 0.23438,0.15625 0.48828,0.3125 l 0.0195,0.11718 0.0195,0.0977 q 0,0.25391 -0.13672,0.46875 -0.11719,0.21484 -0.17578,0.44922 0.0586,0.17578 0.21484,0.2539 0.15625,0.0781 0.3125,0.15625 0.15625,0.0781 0.29297,0.17579 0.13672,0.0976 0.15625,0.3125 0.0195,0.21484 0.0781,0.35156 0.0781,0.11719 0.35157,0.13672 l -0.0195,0.41015 v 0.19532 q 0,0.68359 0.21485,1.17187 0.23437,0.48828 0.50781,0.87891 0.29297,0.39062 0.50781,0.76172 0.23438,0.35156 0.23438,0.76171 0,0.39063 -0.19531,0.74219 -0.17579,0.33203 -0.17579,0.64453 0,0.11719 0.13672,0.33203 0.13672,0.19532 0.29297,0.46875 0.15625,0.27344 0.29297,0.60547 0.13672,0.3125 0.13672,0.6836 0,0.64453 -0.54688,0.97656 -0.0391,0.11719 -0.0391,0.19531 0,0.17578 0.0977,0.27344 0.0976,0.0977 0.19531,0.17578 0.11719,0.0781 0.21484,0.19531 0.0977,0.11719 0.0977,0.35157 0,0.23437 -0.0977,0.41015 -0.0781,0.17578 -0.19531,0.33203 -0.0976,0.13672 -0.19531,0.27344 -0.0781,0.11719 -0.0781,0.25391 0,0.17578 0.0977,0.3125 0.0977,0.11718 0.19531,0.2539 0.11719,0.11719 0.21485,0.25391 0.0976,0.13672 0.0976,0.3125 z m -0.5664,-4.27734 q 0,-0.21485 -0.17578,-0.29297 -0.17579,-0.0781 -0.33204,-0.0781 -0.39062,0 -0.39062,0.35156 0,0.17579 0.13672,0.25391 0.15625,0.0781 0.3125,0.0781 0.15625,0 0.29297,-0.0781 0.15625,-0.0781 0.15625,-0.23437 z m -2.12891,1.79687 q 0,-0.39062 -0.15625,-0.72266 -0.13672,-0.35156 -0.13672,-0.74218 0,-0.44922 0.0391,-0.87891 0.0391,-0.42969 0.0391,-0.87891 0,-0.29296 0.0586,-0.5664 0.0781,-0.27344 0.0781,-0.54688 0,-0.3125 -0.19532,-0.83984 -0.17578,-0.52734 -0.42968,-1.09375 -0.25391,-0.58594 -0.52735,-1.11328 -0.2539,-0.52735 -0.39062,-0.85938 -0.0195,-0.0195 -0.0586,-0.11718 -0.0391,-0.11719 -0.0976,-0.21485 -0.0586,-0.11719 -0.11719,-0.19531 -0.0391,-0.0977 -0.0781,-0.0977 -0.0195,0.0391 -0.0976,0.0391 -0.0586,0 -0.39063,-0.25391 -0.3125,-0.25391 -0.68359,-0.625 -0.35156,-0.39063 -0.64453,-0.80078 -0.27344,-0.42969 -0.27344,-0.78125 0,-0.0977 0.0195,-0.13672 -0.27344,0 -0.66406,-0.0586 -0.37109,-0.0781 -0.76172,-0.21485 -0.37109,-0.13672 -0.68359,-0.35156 -0.29297,-0.21484 -0.39063,-0.48828 -0.48828,0.0586 -0.95703,0.21484 -0.44922,0.13672 -0.89844,0.29297 -0.44922,0.13672 -0.91797,0.25391 -0.46875,0.11718 -0.95703,0.11718 -0.11718,0 -0.23437,0 -0.0977,-0.0195 -0.21485,-0.0391 0.0586,0.11719 0.0586,0.25391 0,0.21484 -0.15625,0.27344 -0.15625,0.0391 -0.3711,0.0391 -0.15625,0 -0.29296,0 -0.11719,-0.0195 -0.21485,-0.0195 l -0.13672,0.0195 0.0195,0.17578 v 0.0781 q 0,0.23438 -0.13671,0.39063 -0.11719,0.15625 -0.29297,0.27344 -0.17578,0.11718 -0.3711,0.23437 -0.19531,0.0977 -0.33203,0.23438 0.23438,0.0391 0.23438,0.29297 0,0.33203 -0.25391,0.82031 -0.25391,0.46875 -0.56641,1.09375 -0.29296,0.60547 -0.54687,1.32812 -0.25391,0.70313 -0.25391,1.48438 -0.0586,0.0976 -0.15625,0.17578 -0.0976,0.0586 -0.21484,0.0586 -0.15625,0 -0.3125,-0.0781 -0.15625,-0.0977 -0.33203,-0.0977 -0.17578,0 -0.17578,0.13672 0,0.21484 0.11718,0.37109 0.13672,0.15625 0.29297,0.33204 0.17578,0.17578 0.29297,0.37109 0.13672,0.19531 0.13672,0.46875 0,0.68359 -0.13672,0.95703 -0.11719,0.25391 -0.27344,0.39063 -0.13671,0.11718 -0.2539,0.29296 -0.11719,0.15625 -0.11719,0.64454 0,0.11718 0,0.23437 0,0.0977 0.0195,0.19531 -0.2539,0.33203 -0.5664,0.54688 0.29296,0.0976 0.48828,0.33203 0.19531,0.21484 0.3125,0.46875 0.11718,0.23437 0.17578,0.48828 0.0586,0.25391 0.0586,0.41016 0,0.58593 0.0977,1.17187 0.11719,0.56641 0.11719,1.15235 0,0.52734 -0.0977,0.72265 -0.0781,0.19531 -0.19531,0.25391 -0.11719,0.0586 -0.21485,0.0586 -0.0781,-0.0195 -0.0781,0.0977 0,0.13672 0.0976,0.13672 0.15625,0 0.33204,-0.0977 0.17578,-0.0977 0.3125,-0.17578 0.0391,0.15625 0.0391,0.44922 0,0.29297 0,0.58594 0.0195,0.29296 0.0781,0.52734 0.0781,0.21484 0.27344,0.25391 0.29297,0.0586 0.41016,0.19531 0.11718,0.13672 0.17578,0.3125 0.0781,0.17578 0.15625,0.37109 0.0781,0.17578 0.3125,0.3125 0.3125,0.17578 0.58594,0.44922 0.27343,0.25391 0.5664,0.48828 0.29297,0.23438 0.60547,0.42969 0.33203,0.17578 0.72266,0.19531 0.68359,0.0586 1.36718,0.17578 0.70313,0.0977 1.38672,0.25391 0.25391,0.0781 0.58594,0.0781 0.39063,0 0.76172,-0.0976 0.39062,-0.11719 0.76172,-0.23438 0.39062,-0.13672 0.78125,-0.23437 0.39062,-0.11719 0.78125,-0.11719 0.23437,0 0.50781,0.0586 -0.0195,-0.0391 -0.0195,-0.13671 0,-0.21485 0.21484,-0.54688 0.23438,-0.35156 0.54688,-0.68359 0.3125,-0.33203 0.64453,-0.56641 0.33203,-0.25391 0.54687,-0.29297 -0.0586,-0.0976 -0.0781,-0.21484 0,-0.13672 0,-0.25391 0,-0.29297 0.0977,-0.64453 0.0976,-0.35156 0.39062,-0.48828 0.13672,-0.0586 0.21484,-0.23438 0.0977,-0.19531 0.13672,-0.44921 0.0586,-0.25391 0.0781,-0.54688 0.0195,-0.3125 0.0195,-0.60547 0,-0.35156 -0.0195,-0.64453 0,-0.3125 0,-0.46875 v -0.19531 q 0.29297,-0.19531 0.41015,-0.56641 0.11719,-0.39062 0.15625,-0.76172 0.0586,-0.37109 0.0781,-0.66406 0.0195,-0.29297 0.0977,-0.35156 0.23437,-0.17578 0.23437,-0.42969 z m -3.4375,11.11328 h -0.0781 q -0.39063,0 -0.64454,0.25391 -0.2539,0.2539 -0.42968,0.60547 0.0586,-0.19532 0.2539,-0.19532 0,0.0977 -0.0781,0.15625 -0.0781,0.0391 -0.17578,0.0391 0.23437,0 0.46875,0.0391 0.23437,0.0195 0.46875,0.0195 0.17578,0 0.27343,-0.0781 0.0977,-0.0977 0.13672,-0.23438 0.0391,-0.13672 0.0391,-0.29297 0,-0.15625 0,-0.29297 z"
       style=""
       id="path851" />
  </g>
</svg>
