<?xml version="1.0" encoding="UTF-8" standalone="no"?>
<svg
   xmlns:dc="http://purl.org/dc/elements/1.1/"
   xmlns:cc="http://creativecommons.org/ns#"
   xmlns:rdf="http://www.w3.org/1999/02/22-rdf-syntax-ns#"
   xmlns:svg="http://www.w3.org/2000/svg"
   xmlns="http://www.w3.org/2000/svg"
   xmlns:sodipodi="http://sodipodi.sourceforge.net/DTD/sodipodi-0.dtd"
   xmlns:inkscape="http://www.inkscape.org/namespaces/inkscape"
   width="200mm"
   height="200mm"
   viewBox="0 0 200 200"
   version="1.1"
   id="svg885"
   sodipodi:docname="map.svg"
   inkscape:version="0.92.3 (2405546, 2018-03-11)">
  <metadata
     id="metadata891">
    <rdf:RDF>
      <cc:Work
         rdf:about="">
        <dc:format>image/svg+xml</dc:format>
        <dc:type
           rdf:resource="http://purl.org/dc/dcmitype/StillImage" />
      </cc:Work>
    </rdf:RDF>
  </metadata>
  <defs
     id="defs889" />
  <sodipodi:namedview
     pagecolor="#ffffff"
     bordercolor="#666666"
     borderopacity="1"
     objecttolerance="10"
     gridtolerance="10"
     guidetolerance="10"
     inkscape:pageopacity="0"
     inkscape:pageshadow="2"
     inkscape:window-width="1600"
     inkscape:window-height="845"
     id="namedview887"
     showgrid="false"
     inkscape:zoom="0.89429167"
     inkscape:cx="377.95276"
     inkscape:cy="377.95276"
     inkscape:window-x="-8"
     inkscape:window-y="-8"
     inkscape:window-maximized="1"
     inkscape:current-layer="svg885" />
  <path
     fill="none"
     stroke="#000"
     stroke-width="1.205"
     stroke-linecap="round"
     stroke-linejoin="round"
     d="M.603.603h28.399v28.399H.603z"
     id="path815" />
  <path
     fill="none"
     stroke="#000"
     stroke-width="1.205"
     stroke-linecap="round"
     stroke-linejoin="round"
     d="M29.002.603h28.399v28.399H29.002zM57.401.603H85.8v28.399H57.401zM85.8.603h28.399v28.399H85.8zM114.2.603h28.399v28.399H114.2zM142.599.603h28.399v28.399h-28.399zM170.998.603h28.399v28.399h-28.399zM170.998 199.397v-28.399h28.399v28.399zM170.998 170.998v-28.399h28.399v28.399zM170.998 142.599V114.2h28.399v28.399zM170.998 114.2V85.801h28.399V114.2zM170.998 85.8V57.401h28.399V85.8z"
     id="path817" />
  <path
     fill="none"
     stroke="#000"
     stroke-width="1.205"
     stroke-linecap="round"
     stroke-linejoin="round"
     d="M170.998 57.401V29.002h28.399v28.399zM.603 170.998h28.399v28.399H.603z"
     id="path819" />
  <path
     fill="none"
     stroke="#000"
     stroke-width="1.205"
     stroke-linecap="round"
     stroke-linejoin="round"
     d="M29.002 170.998h28.399v28.399H29.002zM57.401 170.998H85.8v28.399H57.401zM85.8 170.998h28.399v28.399H85.8zM114.2 170.998h28.399v28.399H114.2zM142.599 170.998h28.399v28.399h-28.399zM.603 170.998v-28.399h28.399v28.399zM.603 142.599V114.2h28.399v28.399zM.603 114.2V85.801h28.399V114.2zM.603 85.8V57.401h28.399V85.8z"
     id="path821" />
  <path
     fill="none"
     stroke="#000"
     stroke-width="1.205"
     stroke-linecap="round"
     stroke-linejoin="round"
     d="M29.002 57.401h28.399V85.8H29.002zM57.401 57.401H85.8V85.8H57.401zM85.8 57.401h28.399V85.8H85.8zM114.2 57.401h28.399V85.8H114.2zM114.2 142.599V114.2h28.399v28.399zM114.2 114.2V85.801h28.399V114.2zM57.401 114.2H85.8v28.399H57.401zM85.8 114.2h28.399v28.399H85.8z"
     id="path823" />
  <path
     d="M1.513 14.916V1.446H28.08v26.94H1.513zM86.452 14.916V1.446h26.94v26.94h-26.94z"
     fill="#0f0"
     stroke="#000"
     stroke-width="1.4141800999999998"
     stroke-linecap="round"
     stroke-linejoin="round"
     id="path825" />
  <path
     d="M29.95 14.916V1.446h26.568v26.94H29.95z"
     fill="#f60"
     stroke="#000"
     stroke-width="1.4141800999999998"
     stroke-linecap="round"
     stroke-linejoin="round"
     id="path827" />
  <path
     d="M58.014 14.916V1.446H84.955v26.94h-26.94zM114.89 14.916V1.446h26.94v26.94h-26.94z"
     fill="#ff0"
     stroke="#000"
     stroke-width="1.4141800999999998"
     stroke-linecap="round"
     stroke-linejoin="round"
     id="path829" />
  <path
     d="M171.764 14.916V1.446h26.94v26.94h-26.94z"
     fill="#f60"
     stroke="#000"
     stroke-width="1.4141800999999998"
     stroke-linecap="round"
     stroke-linejoin="round"
     id="path831" />
  <path
     d="M143.327 14.916V1.446h26.94v26.94h-26.94z"
     fill="red"
     stroke="#000"
     stroke-width="1.4141800999999998"
     stroke-linecap="round"
     stroke-linejoin="round"
     id="path833" />
  <path
     d="M171.764 43.166V29.883h26.94V56.45h-26.94z"
     fill="purple"
     stroke="#000"
     stroke-width="1.4141800999999998"
     stroke-linecap="round"
     stroke-linejoin="round"
     id="path835" />
  <path
     d="M171.764 71.604V58.321h26.94v26.566h-26.94z"
     fill="#00f"
     stroke="#000"
     stroke-width="1.4141800999999998"
     stroke-linecap="round"
     stroke-linejoin="round"
     id="path837" />
  <path
     d="M171.764 100.041V86.758h26.94v26.567h-26.94z"
     fill="#0f0"
     stroke="#000"
     stroke-width="1.4141800999999998"
     stroke-linecap="round"
     stroke-linejoin="round"
     id="path839" />
  <path
     d="M171.764 128.292v-13.47h26.94v26.94h-26.94z"
     fill="red"
     stroke="#000"
     stroke-width="1.4141800999999998"
     stroke-linecap="round"
     stroke-linejoin="round"
     id="path841" />
  <path
     d="M171.764 156.73v-13.471h26.94v26.94h-26.94z"
     fill="#ff0"
     stroke="#000"
     stroke-width="1.4141800999999998"
     stroke-linecap="round"
     stroke-linejoin="round"
     id="path843" />
  <path
     d="M171.764 185.167v-13.47h26.94v26.94h-26.94z"
     fill="red"
     stroke="#000"
     stroke-width="1.4141800999999998"
     stroke-linecap="round"
     stroke-linejoin="round"
     id="path845" />
  <path
     d="M143.327 185.167v-13.47h26.94v26.94h-26.94z"
     fill="#0f0"
     stroke="#000"
     stroke-width="1.4141800999999998"
     stroke-linecap="round"
     stroke-linejoin="round"
     id="path847" />
  <path
     d="M114.89 185.167v-13.47h26.94v26.94h-26.94z"
     fill="#f60"
     stroke="#000"
     stroke-width="1.4141800999999998"
     stroke-linecap="round"
     stroke-linejoin="round"
     id="path849" />
  <path
     d="M86.452 185.167v-13.47h26.94v26.94h-26.94z"
     fill="purple"
     stroke="#000"
     stroke-width="1.4141800999999998"
     stroke-linecap="round"
     stroke-linejoin="round"
     id="path851" />
  <path
     d="M29.95 185.167v-13.47h26.568v26.94H29.95z"
     fill="#00f"
     stroke="#000"
     stroke-width="1.4141800999999998"
     stroke-linecap="round"
     stroke-linejoin="round"
     id="path853" />
  <path
     d="M58.014 185.167v-13.47H84.955v26.94h-26.94z"
     fill="#ff0"
     stroke="#000"
     stroke-width="1.4141800999999998"
     stroke-linecap="round"
     stroke-linejoin="round"
     id="path855" />
  <path
     d="M1.513 185.167v-13.47H28.08v26.94H1.513z"
     fill="purple"
     stroke="#000"
     stroke-width="1.4141800999999998"
     stroke-linecap="round"
     stroke-linejoin="round"
     id="path857" />
  <path
     d="M1.513 128.292v-13.47H28.08v26.94H1.513z"
     fill="#0f0"
     stroke="#000"
     stroke-width="1.4141800999999998"
     stroke-linecap="round"
     stroke-linejoin="round"
     id="path859" />
  <path
     d="M1.513 156.73v-13.471H28.08v26.94H1.513z"
     fill="#f60"
     stroke="#000"
     stroke-width="1.4141800999999998"
     stroke-linecap="round"
     stroke-linejoin="round"
     id="path861" />
  <path
     d="M1.513 100.041V86.758H28.08v26.567H1.513zM114.89 71.604V58.321h26.94v26.566h-26.94zM86.452 128.292v-13.47h26.94v26.94h-26.94z"
     fill="#00f"
     stroke="#000"
     stroke-width="1.4141800999999998"
     stroke-linecap="round"
     stroke-linejoin="round"
     id="path863" />
  <path
     d="M58.014 128.292v-13.47H84.955v26.94h-26.94z"
     fill="#ff0"
     stroke="#000"
     stroke-width="1.4141800999999998"
     stroke-linecap="round"
     stroke-linejoin="round"
     id="path865" />
  <path
     d="M1.513 71.604V58.321H28.08v26.566H1.513z"
     fill="#06ff00"
     stroke="#000"
     stroke-width="1.4141800999999998"
     stroke-linecap="round"
     stroke-linejoin="round"
     id="path867" />
  <path
     d="M58.014 71.604V58.321H84.955v26.566h-26.94zM114.89 100.041V86.758h26.94v26.567h-26.94z"
     fill="red"
     stroke="#000"
     stroke-width="1.4141800999999998"
     stroke-linecap="round"
     stroke-linejoin="round"
     id="path869" />
  <path
     d="M114.89 128.292v-13.47h26.94v26.94h-26.94zM29.95 71.604V58.321h26.568v26.566H29.95z"
     fill="purple"
     stroke="#000"
     stroke-width="1.4141800999999998"
     stroke-linecap="round"
     stroke-linejoin="round"
     id="path871" />
  <path
     d="M86.452 71.604V58.321h26.94v26.566h-26.94z"
     fill="#ff0"
     stroke="#000"
     stroke-width="1.4141800999999998"
     stroke-linecap="round"
     stroke-linejoin="round"
     id="path873" />
  <path
     d="M2.262 14.916V2.194h25.07v25.444H2.262z"
     stroke="#000"
     stroke-width="1.4141800999999998"
     stroke-linecap="round"
     stroke-linejoin="round"
     id="path875" />
  <g
     aria-label="youstarthere"
     transform="translate(0 -97)"
     style="font-weight:400;font-size:6.7670002px;line-height:1.25;font-family:'Special Elite';-inkscape-font-specification:'Special Elite, Normal';font-variant-ligatures:normal;font-variant-caps:normal;font-variant-numeric:normal;font-feature-settings:normal;text-align:start;letter-spacing:0;word-spacing:0;stroke-width:0.169"
     id="text883">
    <path
       d="m 13.147313,102.04457 q 0,0.0397 -0.01983,0.0859 -0.01983,0.0429 -0.05287,0.0826 -0.02974,0.0363 -0.06939,0.0661 -0.03965,0.0297 -0.076,0.043 -0.05948,0.0198 -0.148689,0.0264 -0.08591,0.007 -0.168514,0.0231 -0.0793,0.0165 -0.138776,0.0595 -0.05617,0.0396 -0.05617,0.12886 0,0.0529 -0.0066,0.0694 -0.0066,0.0132 -0.03304,0.0132 -0.0066,0 -0.01982,0 -0.0099,-0.003 -0.02313,-0.003 l -0.02974,0.0165 q -0.04626,0.11234 -0.05617,0.23459 -0.0066,0.12226 -0.03965,0.23791 -0.06278,0.003 -0.10243,0.0595 -0.03635,0.0562 -0.05948,0.13217 -0.01983,0.0727 -0.03635,0.14869 -0.01322,0.076 -0.02974,0.11895 -0.10243,0.24781 -0.211469,0.48572 -0.105734,0.2379 -0.227989,0.4758 -0.0099,0.0198 -0.02313,0.0661 -0.01322,0.043 -0.02974,0.0892 -0.01652,0.043 -0.03965,0.076 -0.01983,0.033 -0.04956,0.033 -0.03965,-0.0165 -0.076,-0.0396 -0.03635,-0.0264 -0.076,-0.0297 -0.01322,0.003 -0.01322,0.0165 0,0.0363 0.03304,0.0595 0.03635,0.0231 0.076,0.0463 0.04295,0.0231 0.076,0.0463 0.03635,0.0231 0.03635,0.0562 0,0.0297 -0.02313,0.0628 -0.01982,0.033 -0.04626,0.0694 -0.02643,0.0397 -0.04956,0.0826 -0.02313,0.043 -0.02643,0.0958 -0.0066,0.0661 -0.03965,0.11895 -0.02974,0.0529 -0.06939,0.10243 -0.03635,0.0529 -0.06939,0.10904 -0.02974,0.0595 -0.03965,0.13217 -0.0066,0.0562 -0.02643,0.11234 -0.01652,0.0595 -0.04626,0.10904 -0.02974,0.0496 -0.07269,0.0859 -0.04296,0.0363 -0.10243,0.0463 -0.01652,0.0991 -0.08261,0.19495 -0.06278,0.0958 -0.155298,0.16851 -0.09252,0.076 -0.198252,0.11895 -0.105734,0.0463 -0.208164,0.0463 -0.0826,0 -0.161906,-0.0231 -0.075997,-0.0231 -0.148689,-0.0595 -0.049563,-0.0231 -0.079301,-0.0264 -0.029738,-0.003 -0.052867,-0.007 -0.019825,-0.003 -0.046259,-0.0198 -0.023129,-0.0165 -0.06278,-0.0661 -0.059475,-0.0793 -0.1288637,-0.14869 -0.066084,-0.0661 -0.1354722,-0.13216 -0.036346,-0.0331 -0.052867,-0.0793 -0.016521,-0.0463 -0.029738,-0.0925 -0.013217,-0.0463 -0.036346,-0.0892 -0.019825,-0.043 -0.069388,-0.0694 -0.016521,-0.0165 -0.016521,-0.0595 0,-0.0297 0.023129,-0.12225 0.023129,-0.0925 0.059476,-0.19165 0.036346,-0.0958 0.079301,-0.17512 0.046259,-0.076 0.085909,-0.076 0.026434,0 0.049563,0.007 0.023129,0.01 0.049563,0.01 0.066084,0 0.1288637,-0.033 0.06278,-0.033 0.132168,-0.033 0.042955,0 0.06278,0.0231 0.023129,0.0231 0.033042,0.0529 0.00991,0.0297 0.016521,0.0529 0.00991,0.0231 0.033042,0.0231 0.016521,-0.003 0.029738,-0.01 0.033042,-0.0132 0.052868,-0.0132 0.04295,0 0.0793,0.0198 0.03635,0.0231 0.06608,0.0562 0.02974,0.033 0.05287,0.0694 0.02643,0.0396 0.04626,0.0727 0.0099,0.0165 0.02974,0.033 0.01983,0.0198 0.03965,0.0396 0.01983,0.0198 0.03304,0.0363 0.01322,0.0198 0.01322,0.0397 0,0.0363 -0.01982,0.0661 -0.01652,0.0297 -0.01652,0.0595 0,0.033 0.02643,0.0463 0.02974,0.0132 0.05617,0.0132 0.06278,0 0.122255,-0.0529 0.06278,-0.0496 0.118952,-0.13217 0.05617,-0.0826 0.10243,-0.18504 0.04956,-0.0991 0.08591,-0.20155 0.03635,-0.0991 0.05617,-0.18834 0.01983,-0.0859 0.01983,-0.13878 0,-0.0562 -0.02643,-0.1553 -0.02643,-0.0991 -0.06939,-0.21807 -0.04295,-0.11895 -0.09582,-0.25112 -0.05287,-0.13217 -0.105734,-0.25442 -0.04956,-0.12226 -0.09252,-0.22469 -0.04295,-0.10573 -0.06939,-0.17182 -0.05287,-0.12556 -0.09582,-0.25773 -0.03965,-0.13216 -0.09252,-0.25772 -0.02974,-0.0694 -0.08591,-0.15861 -0.05287,-0.0925 -0.109038,-0.18833 -0.05287,-0.0991 -0.095822,-0.19165 -0.03965,-0.0958 -0.03965,-0.16851 -0.026434,0 -0.059476,-0.01 -0.029738,-0.0132 -0.059476,-0.0264 -0.029738,-0.0165 -0.059476,-0.0264 -0.026434,-0.0132 -0.049563,-0.0132 -0.069388,0 -0.1420805,0.0198 -0.072692,0.0165 -0.1453848,0.0165 -0.03965,0 -0.092518,-0.007 -0.052867,-0.01 -0.1024302,-0.0264 -0.046259,-0.0198 -0.082605,-0.0529 -0.033042,-0.033 -0.033042,-0.0826 0,-0.0363 0.00991,-0.0826 0.00991,-0.0463 0.026433,-0.0859 0.019825,-0.043 0.046259,-0.0694 0.026434,-0.0297 0.059476,-0.0297 0.049563,0 0.095822,0.033 0.046259,0.0297 0.099126,0.0297 0.075997,0 0.148689,-0.007 0.075997,-0.007 0.1519931,-0.007 0.066084,0 0.1288638,-0.0363 0.066084,-0.0363 0.122255,-0.0661 0.06278,-0.033 0.178427,-0.0396 0.118951,-0.01 0.237902,-0.01 0.04295,0 0.135473,-0.003 0.09252,-0.007 0.185035,0.007 0.09582,0.0132 0.16521,0.0595 0.07269,0.043 0.07269,0.13878 0,0.0826 -0.03635,0.13878 -0.03304,0.0529 -0.08591,0.0925 -0.04956,0.0397 -0.112343,0.0727 -0.05948,0.0297 -0.112343,0.0661 -0.04956,0.033 -0.08591,0.0793 -0.03304,0.0463 -0.03304,0.11565 0,0.10904 0.06278,0.2346 0.06278,0.12225 0.138776,0.24451 0.076,0.11895 0.142081,0.22799 0.06608,0.10903 0.076,0.18833 0.0033,0.043 0.02313,0.12226 0.01983,0.0793 0.05287,0.1586 0.03635,0.076 0.0826,0.13547 0.04956,0.0562 0.105734,0.0562 0.03965,0 0.06939,-0.0331 0.02974,-0.033 0.05287,-0.0793 0.02313,-0.0463 0.03635,-0.0925 0.01652,-0.0496 0.02643,-0.0793 0.02974,-0.0925 0.05287,-0.18503 0.02643,-0.0925 0.0826,-0.17182 0.04626,-0.0595 0.07269,-0.12225 0.02643,-0.0661 0.05617,-0.13548 0.03304,-0.0826 0.06608,-0.12886 0.03635,-0.0463 0.06278,-0.0925 0.02643,-0.0463 0.04295,-0.11234 0.01983,-0.0661 0.01983,-0.19164 0,-0.076 -0.03304,-0.11235 -0.03304,-0.0363 -0.08261,-0.0562 -0.04626,-0.0198 -0.10243,-0.033 -0.05617,-0.0132 -0.105735,-0.0397 -0.04626,-0.0297 -0.0793,-0.0859 -0.03304,-0.0562 -0.03304,-0.1586 0,-0.0859 0.05287,-0.13547 0.05287,-0.0529 0.128864,-0.076 0.0793,-0.0264 0.171818,-0.033 0.09252,-0.007 0.171818,-0.007 h 0.115647 q 0.145385,0 0.284161,-0.0198 0.142081,-0.0198 0.284162,-0.0198 0.04295,0 0.125559,0.0231 0.08261,0.0231 0.16521,0.0529 0.08261,0.0297 0.138777,0.0595 0.05947,0.0264 0.05617,0.0363 0,-0.003 0.01983,0.0264 0.02313,0.0297 0.02313,0.0694 z m -2.725965,3.86261 -0.04956,-0.003 h -0.01982 q -0.05617,0 -0.08921,0.0264 -0.03304,0.0297 -0.03304,0.0892 l 0.0033,0.0264 q 0.02974,-0.007 0.06278,-0.0132 0.03304,-0.003 0.05948,-0.0132 0.02974,-0.01 0.04626,-0.0297 0.01983,-0.0198 0.01983,-0.0562 v -0.0132 z"
       style="text-align:center;text-anchor:middle;fill:#ffffff"
       id="path893" />
    <path
       d="m 16.808365,103.61076 q 0,0.0463 -0.01652,0.0892 -0.01322,0.0397 -0.03304,0.0694 -0.01652,0.0297 -0.03304,0.0496 -0.01322,0.0198 -0.01322,0.0231 0,0.0331 0.01983,0.0694 0.02313,0.0363 0.02313,0.0793 0,0.0198 -0.01652,0.0264 -0.01322,0.007 -0.02974,0.007 -0.02974,0 -0.04956,-0.007 0.0033,0.0628 0.0099,0.12225 0.0099,0.0595 0.0099,0.12226 0,0.0958 -0.01982,0.12556 -0.01652,0.0264 -0.03635,0.033 -0.01983,0.007 -0.03965,0.0165 -0.01652,0.007 -0.01652,0.0595 0,0.0297 -0.04295,0.076 -0.03965,0.0463 -0.09913,0.0925 -0.05617,0.0463 -0.118951,0.0793 -0.05948,0.033 -0.09582,0.033 -0.0099,0 -0.02313,-0.007 0,0.0264 0.0033,0.0562 0.0033,0.0297 0.0033,0.0562 0,0.043 -0.02643,0.0595 -0.02643,0.0132 -0.05948,0.0264 -0.04956,0.0231 -0.10243,0.0694 -0.05287,0.043 -0.109039,0.0892 -0.05617,0.0463 -0.115647,0.0793 -0.05617,0.0363 -0.118951,0.0363 -0.05287,0 -0.09913,-0.0264 -0.04296,-0.0264 -0.10243,-0.0264 -0.05287,0 -0.08921,0.0132 -0.03635,0.0165 -0.06939,0.0331 -0.02974,0.0198 -0.06278,0.033 -0.03304,0.0165 -0.076,0.0165 -0.08591,0 -0.171818,-0.0463 -0.08591,-0.0429 -0.16521,-0.0694 -0.04626,-0.0165 -0.09913,-0.0264 -0.05287,-0.007 -0.102431,-0.0165 -0.04956,-0.01 -0.09582,-0.0331 -0.04296,-0.0198 -0.076,-0.0595 -0.06939,-0.0859 -0.161906,-0.14208 -0.09252,-0.0562 -0.188339,-0.10574 -0.09582,-0.0496 -0.185035,-0.10243 -0.08921,-0.0562 -0.155298,-0.14538 -0.04956,-0.0694 -0.112342,-0.14869 -0.06278,-0.0826 -0.118952,-0.17182 -0.05287,-0.0892 -0.08921,-0.18173 -0.03635,-0.0925 -0.03635,-0.18173 0,-0.0661 0.01322,-0.12886 0.01322,-0.0628 0.02643,-0.12556 0.01652,-0.0661 0.02974,-0.12887 0.01322,-0.0628 0.01322,-0.12886 v -0.0363 q 0,-0.0132 -0.0099,-0.0297 -0.0099,-0.0165 -0.02313,-0.0297 -0.0099,-0.0165 -0.02313,-0.0264 -0.0099,-0.0132 -0.01322,-0.0132 -0.0066,0 -0.0066,0.003 0.0033,-0.0297 0.01652,-0.0892 0.01652,-0.0628 0.03635,-0.12556 0.01983,-0.0661 0.03965,-0.11895 0.01983,-0.0562 0.03635,-0.0727 0.01983,-0.0165 0.03635,-0.033 0.01983,-0.0198 0.01983,-0.0496 0,-0.0297 -0.0033,-0.0562 -0.0033,-0.0297 -0.0033,-0.0595 0,-0.0396 0.0099,-0.0463 0.0099,-0.01 0.02643,-0.01 0.01652,0 0.03304,-0.003 0.01652,-0.007 0.03304,-0.0363 0.02974,-0.0595 0.05617,-0.10904 0.02974,-0.0529 0.06278,-0.0958 0.03304,-0.043 0.076,-0.0793 0.04295,-0.0363 0.105734,-0.0694 0.05287,-0.0297 0.102431,-0.0727 0.05287,-0.043 0.105734,-0.0859 0.05287,-0.043 0.105734,-0.0727 0.05617,-0.0297 0.118951,-0.0297 0.08921,0 0.171819,-0.0297 0.08591,-0.033 0.171818,-0.0496 0.135472,-0.0198 0.26764,-0.0363 0.135473,-0.0198 0.274249,-0.0198 0.076,0 0.185035,0.0264 0.109039,0.0231 0.221381,0.0628 0.115647,0.0396 0.214773,0.0892 0.102431,0.0496 0.161906,0.0991 v 0.01 q 0,0.0463 -0.01652,0.0958 -0.01652,0.0463 -0.01652,0.0925 0,0.007 0,0.0132 0,0.007 0.0066,0.007 0.05617,0 0.105734,-0.0132 0.05287,-0.0165 0.109038,-0.0165 0.0066,0.0562 0.04956,0.076 0.04295,0.0198 0.08591,0.0363 0.03965,0.0198 0.07269,0.0727 0.03635,0.0496 0.06608,0.11564 0.02974,0.0628 0.05617,0.12556 0.02974,0.0628 0.05617,0.10243 0.02643,0.0396 0.04626,0.0958 0.02313,0.0529 0.03635,0.11235 0.01652,0.0595 0.02313,0.11895 0.0066,0.0562 0.0066,0.10573 0,0.0661 -0.02643,0.11234 -0.02313,0.043 -0.05287,0.0793 -0.02974,0.033 -0.05617,0.0661 -0.02313,0.0297 -0.02313,0.0694 0,0.0231 0.0099,0.043 0.0099,0.0198 0.02643,0.0363 0.0066,-0.003 0.02643,-0.007 0.02313,-0.003 0.02313,-0.0198 v -0.003 q 0,-0.0264 -0.02313,-0.0496 -0.01983,-0.0231 -0.01983,-0.0562 0,-0.007 0.0066,-0.0198 0.0066,-0.0165 0.01652,-0.0165 0.01983,0 0.03965,0.0264 0.01983,0.0231 0.03635,0.0529 0.01983,0.0264 0.02974,0.0463 0.0099,0.0198 0.0099,0.0132 l -0.0033,-0.003 q 0.0033,0.0165 0.0033,0.0297 0.0033,0.01 0.0033,0.0231 z m -0.33042,0.0264 q 0,-0.0529 -0.03965,-0.0628 -0.03965,-0.0132 -0.08921,-0.0165 -0.04956,-0.003 -0.09913,-0.01 -0.04626,-0.007 -0.06278,-0.0496 v -0.0331 q 0,-0.0727 -0.01983,-0.16851 -0.01652,-0.0991 -0.04295,-0.19825 -0.02643,-0.10243 -0.05617,-0.19825 -0.02974,-0.0991 -0.05617,-0.17513 -0.02643,-0.076 -0.04295,-0.12225 -0.01652,-0.0463 -0.01652,-0.0463 -0.02643,0.007 -0.04296,0.007 -0.05617,0 -0.09913,-0.0231 -0.03965,-0.0231 -0.09252,-0.0496 -0.04956,-0.0264 -0.125559,-0.0496 -0.07269,-0.0231 -0.194948,-0.0231 -0.135472,0 -0.26764,-0.0165 -0.132168,-0.0198 -0.26764,-0.0198 -0.185035,0 -0.346941,0.0859 -0.161906,0.0826 -0.284161,0.22138 -0.122256,0.13547 -0.191644,0.30729 -0.06939,0.17182 -0.06939,0.34694 0,0.0727 0.0033,0.17182 0.0033,0.0958 0.01652,0.19495 0.01322,0.0958 0.04295,0.18173 0.02974,0.0826 0.08261,0.12556 v 0.0925 q 0.01322,0.0132 0.03304,0.0165 0.02313,0 0.04295,0 0.02313,0 0.03965,0.007 0.01652,0.003 0.02643,0.0264 0.04295,0.12225 0.112343,0.18834 0.06939,0.0628 0.148689,0.10903 0.0793,0.043 0.158602,0.0892 0.0793,0.043 0.145384,0.12886 0.02643,-0.003 0.05617,-0.003 0.02974,-0.003 0.05617,-0.003 0.105735,0 0.204861,0.0165 0.10243,0.0132 0.20486,0.0132 0.109038,0 0.194948,-0.0562 0.08921,-0.0562 0.151993,-0.14208 0.03965,-0.0562 0.07269,-0.0958 0.03304,-0.0396 0.06608,-0.0727 0.03635,-0.0363 0.076,-0.0661 0.04295,-0.033 0.09913,-0.0727 0.01982,-0.0132 0.04626,-0.033 0.02974,-0.0198 0.05617,-0.043 0.02974,-0.0264 0.04956,-0.0496 0.01983,-0.0264 0.01983,-0.0496 0,-0.0297 -0.0099,-0.0595 -0.0066,-0.0297 -0.0066,-0.0595 0,-0.033 0.0099,-0.0793 0.0099,-0.0463 0.02974,-0.0892 0.02313,-0.0429 0.05287,-0.0694 0.03304,-0.0297 0.0793,-0.0297 0.03635,0 0.07269,0.0165 0.03635,0.0165 0.06608,0.0397 0.0066,-0.0331 0.0066,-0.0496 z"
       style="text-align:center;text-anchor:middle;fill:#ffffff"
       id="path895" />
    <path
       d="m 21.30538,104.84983 q 0,0.0595 -0.03965,0.12556 -0.03635,0.0661 -0.09582,0.11895 -0.05617,0.0562 -0.122255,0.0925 -0.06608,0.0363 -0.12556,0.0363 -0.10243,0 -0.201556,-0.0165 -0.09913,-0.0165 -0.20486,-0.0165 -0.04956,0 -0.115647,-0.007 -0.06278,-0.007 -0.08921,-0.033 -0.076,-0.0132 -0.112342,-0.0595 -0.03635,-0.043 -0.06608,-0.0958 -0.02643,-0.0529 -0.05948,-0.10243 -0.02974,-0.0496 -0.09252,-0.0694 -0.188339,0.0826 -0.333724,0.1586 -0.14208,0.076 -0.284161,0.13217 -0.138776,0.0595 -0.300682,0.0925 -0.158602,0.0363 -0.379983,0.0363 -0.09582,0 -0.138776,-0.01 -0.03965,-0.01 -0.06278,-0.033 -0.01983,-0.0198 -0.03965,-0.0562 -0.01652,-0.0363 -0.06608,-0.0892 -0.02643,-0.0264 -0.05287,-0.0297 -0.02313,-0.007 -0.04626,-0.007 h -0.01652 q -0.02974,0 -0.05617,-0.01 -0.02313,-0.0132 -0.03635,-0.0661 -0.0099,-0.0397 -0.03965,-0.0892 -0.02974,-0.0529 -0.06939,-0.10574 -0.03635,-0.0529 -0.076,-0.0958 -0.03965,-0.0429 -0.07269,-0.0661 l -0.0033,-0.32712 q -0.0033,-0.33042 0.01983,-0.65423 0.02313,-0.32381 0.02313,-0.65423 0,-0.0496 -0.0033,-0.13547 -0.0033,-0.0892 -0.01652,-0.17843 -0.0099,-0.0892 -0.03965,-0.1586 -0.02643,-0.0727 -0.076,-0.0859 -0.076,-0.0165 -0.155298,-0.0132 -0.076,0 -0.151993,-0.003 -0.076,-0.003 -0.148689,-0.0231 -0.06939,-0.0198 -0.132168,-0.0859 -0.03635,-0.0363 -0.06939,-0.0892 -0.02974,-0.0529 -0.02974,-0.10904 0,-0.0826 0.06939,-0.13878 0.07269,-0.0595 0.171819,-0.0958 0.09913,-0.0363 0.201556,-0.0529 0.10243,-0.0165 0.16521,-0.0165 0.181731,0 0.343637,0.0562 0.16521,0.0529 0.300682,0.17513 0.0066,0.007 0.0066,0.0132 0,0.003 -0.0033,0.007 0.0066,0.0958 0.02643,0.19164 0.01983,0.0925 0.01983,0.18834 0,0.0529 -0.01652,0.0991 -0.01322,0.0463 -0.01322,0.10243 0,0.0562 0.01322,0.11234 0.01322,0.0562 0.01322,0.11235 0,0.0363 -0.0066,0.0727 -0.0066,0.0363 -0.0066,0.0727 0,0.10243 0.02313,0.20156 0.02313,0.0958 0.02313,0.19825 0,0.0892 -0.01983,0.17512 -0.01983,0.0826 -0.04626,0.16852 -0.02313,0.0859 -0.04295,0.17181 -0.01983,0.0826 -0.01983,0.17182 0,0.12226 0.04956,0.22799 0.04956,0.10574 0.132168,0.18504 0.08261,0.076 0.188339,0.12225 0.109039,0.043 0.22799,0.043 0.10243,0 0.16521,-0.0198 0.06608,-0.0231 0.105734,-0.0496 0.03965,-0.0264 0.06278,-0.0463 0.02643,-0.0231 0.05287,-0.0231 0.02643,0 0.04626,0.007 0.02313,0.003 0.04626,0.003 0.04626,0 0.076,-0.0198 0.02974,-0.0198 0.05287,-0.0463 0.02643,-0.0264 0.04956,-0.0496 0.02643,-0.0264 0.06608,-0.0363 0.076,-0.0165 0.132168,-0.0429 0.05617,-0.0297 0.05617,-0.11896 0,-0.0165 0.0033,-0.0297 0.0066,-0.0132 0.03304,-0.0132 0.01652,0 0.02313,0.01 0.0099,0.007 0.02643,0.0132 0.01652,-0.0132 0.02313,-0.0363 0.0066,-0.0231 0.01322,-0.0396 0.01652,-0.0595 0.05948,-0.10573 0.04626,-0.0463 0.05287,-0.10574 0.0066,-0.0661 0.03304,-0.12225 0.02643,-0.0562 0.02643,-0.11895 0,-0.0562 -0.02974,-0.0991 -0.02974,-0.043 -0.02974,-0.10243 0,-0.0661 0.02313,-0.13217 0.02643,-0.0661 0.02643,-0.13216 -0.01983,-0.0264 -0.03965,-0.0595 -0.01652,-0.033 -0.01652,-0.0661 0,-0.0562 0.01983,-0.0727 0.01982,-0.0198 0.01982,-0.0396 0,-0.0297 -0.01652,-0.0595 -0.01322,-0.033 -0.03304,-0.0628 -0.01983,-0.0297 -0.03635,-0.0595 -0.01322,-0.0297 -0.01322,-0.0628 0,-0.033 0.0099,-0.0628 0.01322,-0.033 0.01322,-0.0694 0,-0.0529 -0.02643,-0.0925 -0.02313,-0.043 -0.06278,-0.0694 -0.03635,-0.0297 -0.08591,-0.043 -0.04626,-0.0165 -0.09252,-0.0231 -0.08261,-0.01 -0.14208,-0.01 -0.05948,0 -0.105735,-0.0132 -0.04295,-0.0165 -0.0826,-0.0562 -0.03635,-0.0396 -0.076,-0.12886 -0.02313,-0.0529 -0.02313,-0.0892 0,-0.0793 0.06939,-0.12556 0.07269,-0.0496 0.168514,-0.0727 0.09582,-0.0264 0.191643,-0.033 0.09913,-0.01 0.155298,-0.01 0.05287,0 0.10243,0.01 0.05287,0.007 0.105734,0.007 0.05617,0 0.109039,-0.0198 0.05617,-0.0231 0.112343,-0.0231 0.0793,0 0.128863,0.0463 0.04956,0.043 0.076,0.11565 0.02974,0.0694 0.03965,0.16191 0.0099,0.0892 0.0099,0.18173 0,0.12225 -0.0099,0.23129 -0.0066,0.10904 -0.0066,0.17513 0,0.14208 0.02643,0.26764 0.02974,0.12225 0.02974,0.22799 0,0.033 -0.01652,0.0661 -0.01322,0.033 -0.02974,0.0661 -0.01652,0.0331 -0.03304,0.0661 -0.01322,0.033 -0.01322,0.0661 0,0.0264 0.0099,0.0463 l 0.02313,0.19164 q -0.01652,0.0132 -0.01983,0.0331 -0.0033,0.0198 -0.0033,0.0363 0,0.0529 0.0099,0.10574 0.01322,0.0496 0.01322,0.10573 0,0.0628 -0.01322,0.12556 -0.01322,0.0595 -0.01322,0.12226 0,0.15199 0.10243,0.23459 0.105735,0.0793 0.247815,0.0793 0.0793,0 0.158602,-0.0264 0.02313,0.0496 0.06278,0.0892 0.04295,0.0363 0.0826,0.0727 0.03965,0.0363 0.06608,0.0826 0.02974,0.0463 0.02974,0.11234 z"
       style="text-align:center;text-anchor:middle;fill:#ffffff"
       id="path897" />
    <path
       d="m 9.4267841,112.50691 q 0,0.043 -0.016521,0.0859 -0.013217,0.0396 -0.033042,0.0826 -0.019825,0.0396 -0.03965,0.0793 -0.016521,0.0397 -0.023129,0.0826 -0.016521,0.0892 -0.069388,0.16191 -0.049563,0.0694 -0.1156469,0.13217 -0.066084,0.0628 -0.1387764,0.12225 -0.072692,0.0562 -0.1288638,0.11565 -0.049563,0.0496 -0.1057344,0.0496 -0.033042,0 -0.06278,-0.007 -0.029738,-0.007 -0.06278,-0.007 -0.046259,0 -0.075997,0.0165 -0.026434,0.0165 -0.052867,0.0363 -0.023129,0.0165 -0.059476,0.033 -0.033042,0.0165 -0.092518,0.0165 -0.042955,0 -0.082605,0.0231 -0.03965,0.0231 -0.079301,0.0231 -0.056171,0 -0.1321679,-0.033 -0.072692,-0.033 -0.1619058,-0.033 -0.056171,0 -0.1123428,0.007 -0.056171,0.003 -0.1123427,0.003 -0.049563,0 -0.099126,-0.0132 -0.046259,-0.0165 -0.092518,-0.0331 -0.042955,-0.0198 -0.089213,-0.033 -0.046259,-0.0165 -0.095822,-0.0165 -0.099126,0 -0.1685141,0.0496 -0.069388,0.0496 -0.1255596,0.10904 -0.052867,0.0628 -0.1090386,0.11235 -0.052867,0.0496 -0.1222554,0.0496 -0.06278,0 -0.085909,-0.0231 -0.019825,-0.0198 -0.026434,-0.0496 -0.0033,-0.0297 -0.00661,-0.0661 -0.0033,-0.033 -0.029738,-0.0595 -0.049563,-0.0529 -0.066084,-0.0958 -0.016521,-0.0463 -0.016521,-0.11895 0,-0.1586 0.026434,-0.30729 0.029738,-0.15199 0.029738,-0.31059 0,-0.0562 -0.013217,-0.10904 -0.013217,-0.0529 -0.033042,-0.0958 -0.016521,-0.043 -0.029738,-0.0727 -0.013217,-0.0297 -0.013217,-0.043 0,-0.0297 0.016521,-0.0628 0.016521,-0.033 0.036346,-0.0595 0.023129,-0.0297 0.046259,-0.0463 0.026434,-0.0198 0.042955,-0.0198 0.033042,0 0.056171,0.0165 0.026434,0.0165 0.049563,0.0363 0.026434,0.0165 0.049563,0.033 0.026434,0.0165 0.06278,0.0165 0.00661,0 0.00991,0 0.0033,-0.003 0.00991,-0.003 0.046259,0.076 0.072692,0.16521 0.026434,0.0859 0.052867,0.17182 0.029738,0.0826 0.069388,0.1619 0.042955,0.076 0.1189512,0.13547 0.019825,0.0165 0.046259,0.0363 0.026434,0.0198 0.052867,0.0397 0.029738,0.0198 0.056171,0.033 0.029738,0.0132 0.052867,0.0132 0.036346,0 0.069388,-0.007 0.036346,-0.007 0.072692,-0.007 0.049563,0 0.049563,0.033 0,0.007 -0.00661,0.0264 h 0.03965 0.023129 q 0.1255595,0 0.2511191,-0.0297 0.1255596,-0.0297 0.2544234,-0.0297 0.059475,0 0.1189511,0.0132 0.06278,0.01 0.1123428,0.0463 0.06278,-0.0297 0.1057344,-0.076 0.042955,-0.0463 0.085909,-0.0892 0.042955,-0.0463 0.095822,-0.0793 0.052867,-0.0363 0.1354722,-0.0396 0.016521,-0.0198 0.016521,-0.0463 0.0033,-0.0264 0.0033,-0.0496 0,-0.0264 0.0033,-0.0496 0.00661,-0.0231 0.026434,-0.043 0.033042,-0.0297 0.049563,-0.0595 0.019825,-0.033 0.019825,-0.0793 0,-0.0892 -0.049563,-0.16521 -0.049563,-0.0793 -0.1288638,-0.14208 -0.075997,-0.0661 -0.1784267,-0.11565 -0.099126,-0.0529 -0.2048604,-0.0892 -0.1024302,-0.0363 -0.1982519,-0.0529 -0.095822,-0.0198 -0.1685142,-0.0198 -0.082605,0 -0.16521,0.0165 -0.079301,0.0132 -0.1552973,0.0496 0,-0.0727 -0.033042,-0.0958 -0.033042,-0.0231 -0.079301,-0.033 -0.046259,-0.01 -0.095822,-0.0264 -0.046259,-0.0198 -0.072692,-0.0826 -0.056171,0.0727 -0.1420806,0.10573 -0.082605,0.0331 -0.1685141,0.0331 -0.085909,0 -0.1586016,-0.0331 -0.072692,-0.033 -0.132168,-0.0892 -0.056171,-0.0562 -0.092518,-0.12886 -0.033042,-0.0727 -0.036346,-0.1553 -0.0033,-0.0562 -0.023129,-0.0991 -0.019825,-0.043 -0.042955,-0.0826 -0.023129,-0.0397 -0.042955,-0.0826 -0.016521,-0.043 -0.016521,-0.10243 0,-0.14869 0.013217,-0.23129 0.016521,-0.0859 0.03965,-0.12886 0.023129,-0.0463 0.049563,-0.0628 0.029738,-0.0198 0.059476,-0.0363 0.029738,-0.0198 0.056171,-0.0529 0.026434,-0.033 0.042955,-0.10573 0.00991,-0.0496 0.029738,-0.0661 0.019825,-0.0165 0.069388,-0.0231 0.042955,-0.007 0.056171,-0.0198 0.013217,-0.0132 0.016521,-0.0297 0.00661,-0.0165 0.013217,-0.033 0.00661,-0.0198 0.033042,-0.0363 0.069388,-0.0463 0.1354722,-0.0562 0.069388,-0.0132 0.1420805,-0.0132 0.042955,0 0.082605,0.003 0.03965,0 0.085909,0 0.1387764,0 0.2709443,-0.0132 0.132168,-0.0132 0.2709444,-0.0132 0.1057344,0 0.1916435,0.0231 0.089213,0.0198 0.1552974,0.0463 0.066084,0.0264 0.1123428,0.0496 0.049563,0.0198 0.079301,0.0198 0.056171,0 0.1057344,-0.0198 0.052867,-0.0231 0.1090385,-0.0264 0.026434,0.0231 0.059476,0.043 0.036346,0.0165 0.072692,0.0165 0.026434,0 0.03965,-0.0165 0.013217,-0.0165 0.016521,-0.043 0.046259,0.0132 0.089213,0.0463 0.042955,0.033 0.075997,0.0793 0.036346,0.043 0.056171,0.0958 0.019825,0.0496 0.019825,0.0958 0,0.12225 -0.019825,0.24451 -0.016521,0.11895 -0.016521,0.2412 0,0.12556 0.033042,0.2346 -0.046259,0.0363 -0.1024301,0.0661 -0.052867,0.0264 -0.089213,0.076 l -0.0033,-0.003 q -0.023129,-0.0198 -0.059476,-0.0496 -0.033042,-0.033 -0.072692,-0.0628 -0.036346,-0.0297 -0.072692,-0.0496 -0.036346,-0.0231 -0.066084,-0.0231 h -0.00661 q -0.016521,-0.01 -0.029738,-0.0231 -0.00991,-0.0132 -0.00991,-0.033 0,-0.033 0.019825,-0.0595 0.019825,-0.0264 0.019825,-0.0595 0,-0.01 -0.029738,-0.0463 -0.029738,-0.0363 -0.069388,-0.0727 -0.036346,-0.0397 -0.072692,-0.0694 -0.036346,-0.033 -0.052867,-0.0363 -0.033042,-0.007 -0.069388,-0.0231 -0.036346,-0.0165 -0.072692,-0.0331 -0.036346,-0.0165 -0.069388,-0.0297 -0.029738,-0.0132 -0.049563,-0.0132 -0.042955,0 -0.085909,0.0132 -0.042955,0.01 -0.089213,0.0132 h 0.0033 l -0.148689,-0.0165 q -0.1090386,-0.0132 -0.2147729,-0.0529 -0.1057344,-0.0396 -0.2180772,-0.0396 -0.099126,0 -0.1453848,0.0463 -0.046259,0.0463 -0.075997,0.10574 -0.029738,0.0562 -0.059476,0.10243 -0.029738,0.0463 -0.099126,0.0463 -0.019825,0 -0.029738,-0.003 0.033042,0.10574 0.059476,0.17843 0.029738,0.0727 0.069388,0.13217 0.03965,0.0562 0.099126,0.10903 0.059476,0.0496 0.1519932,0.10904 0.00991,0.007 0.026434,0.0231 0.019825,0.0165 0.03965,0.0364 0.019825,0.0165 0.036346,0.0297 0.019825,0.0132 0.029738,0.0132 0.056171,0 0.1057344,-0.0264 0.052867,-0.0264 0.1090385,-0.0264 0.03965,0 0.072692,0.0198 0.036346,0.0165 0.075997,0.0165 0.03965,0 0.075997,-0.0132 0.036346,-0.0165 0.079301,-0.0165 0.016521,0 0.033042,0.003 0.019825,0.003 0.036346,0.007 0.099126,0.0264 0.1982519,0.0264 0.099126,-0.003 0.2015562,0 0.072692,0 0.1453847,0.0264 0.075997,0.0264 0.1453848,0.0694 0.069388,0.0397 0.1288638,0.0925 0.059476,0.0529 0.1024302,0.10904 0.033042,0.0463 0.072692,0.0826 0.03965,0.0363 0.075997,0.076 0.03965,0.0363 0.069388,0.0793 0.029738,0.043 0.042955,0.0991 0.016521,0.0661 0.042955,0.14538 0.029738,0.0793 0.029738,0.14208 z"
       style="text-align:center;text-anchor:middle;fill:#ffffff"
       id="path899" />
    <path
       d="m 12.992015,112.34501 q 0,0.10573 -0.02313,0.20155 -0.02313,0.0925 -0.05287,0.18504 -0.02974,0.0892 -0.06278,0.18503 -0.02974,0.0925 -0.04626,0.19165 -0.02974,0.16521 -0.118951,0.27425 -0.08921,0.10903 -0.214773,0.17181 -0.12556,0.0661 -0.280857,0.0958 -0.151993,0.033 -0.313899,0.0496 -0.161906,0.0165 -0.320507,0.0231 -0.155298,0.007 -0.287466,0.0231 -0.04956,-0.0364 -0.0826,-0.0793 -0.03304,-0.043 -0.06278,-0.0826 -0.02974,-0.0363 -0.06608,-0.0628 -0.03635,-0.0231 -0.09582,-0.0231 -0.01982,0 -0.03304,-0.0529 -0.0099,-0.0562 -0.01982,-0.12226 -0.0099,-0.0694 -0.02313,-0.12226 -0.0099,-0.0562 -0.02974,-0.0562 -0.076,0 -0.122255,-0.033 -0.04295,-0.033 -0.06939,-0.0826 -0.02313,-0.0529 -0.03304,-0.11565 -0.0066,-0.0628 -0.0066,-0.12226 0,-0.0463 -0.01983,-0.0859 -0.01982,-0.0397 -0.04295,-0.076 -0.02313,-0.0397 -0.04295,-0.0793 -0.01983,-0.0396 -0.01983,-0.0826 0,-0.0496 0.0033,-0.12225 0.0066,-0.076 0.0099,-0.1553 0.0066,-0.0793 0.0099,-0.1553 0.0066,-0.076 0.0066,-0.12556 0,-0.0595 0.01322,-0.0991 0.01652,-0.0397 0.03635,-0.0694 0.01982,-0.0297 0.03304,-0.0529 0.01652,-0.0231 0.01652,-0.0529 0,-0.0397 -0.01982,-0.0661 -0.01652,-0.0264 -0.01652,-0.0529 0,-0.0363 0.02313,-0.0694 0.02313,-0.0363 0.03304,-0.0727 0.03635,-0.14538 0.03635,-0.28746 0,-0.0297 -0.0033,-0.0562 0,-0.0297 -0.0033,-0.0562 -0.076,-0.0628 -0.168514,-0.0793 -0.09252,-0.0198 -0.185036,-0.0264 -0.09252,-0.01 -0.178426,-0.0231 -0.08591,-0.0132 -0.145385,-0.0694 -0.049563,-0.0463 -0.089214,-0.10243 -0.03965,-0.0595 -0.1057344,-0.0793 -0.046259,-0.0165 -0.079301,-0.0429 -0.029738,-0.0297 -0.029738,-0.0826 0,-0.0793 0.046259,-0.11895 0.049563,-0.043 0.115647,-0.0661 0.066084,-0.0264 0.1354722,-0.043 0.072693,-0.0198 0.1222555,-0.0562 0.04956,-0.0363 0.118951,-0.0363 0.02974,0 0.05617,0.003 0.02974,0 0.05948,0 0.0826,0 0.135472,-0.0264 0.05617,-0.0297 0.08591,-0.076 0.03304,-0.0496 0.04296,-0.11234 0.01322,-0.0628 0.01322,-0.13548 0,-0.10573 -0.01322,-0.20486 -0.01322,-0.0991 -0.01322,-0.20486 0,-0.12225 0.03304,-0.22468 0.03304,-0.10243 0.12556,-0.18834 0.01983,-0.0165 0.04295,-0.043 0.02313,-0.0264 0.04956,-0.0496 0.02643,-0.0264 0.05287,-0.0429 0.02974,-0.0165 0.05948,-0.0165 0.01983,0 0.03304,0.01 0.01652,0.007 0.03304,0.0198 0.07269,0.0727 0.09252,0.10904 0.02313,0.033 0.02313,0.0793 0,0.0264 -0.0033,0.0595 0,0.0297 0,0.0793 0,0.10573 0.02643,0.20816 0.02643,0.10243 0.02643,0.17513 0,0.0628 -0.02643,0.12225 -0.02313,0.0562 -0.02313,0.11895 0,0.0463 0.01982,0.0859 0.02313,0.0364 0.04956,0.0727 0.02974,0.0363 0.05287,0.076 0.02313,0.0363 0.02313,0.0859 0.03304,0.0231 0.148689,0.043 0.115647,0.0165 0.257727,0.0297 0.142081,0.01 0.287466,0.0165 0.145384,0.007 0.241206,0.007 0.08591,0 0.132168,0.0132 0.04626,0.0132 0.076,0.0297 0.03304,0.0132 0.05948,0.0297 0.02643,0.0165 0.06939,0.0198 0.05287,0.007 0.08921,0.0297 0.03965,0.0198 0.03965,0.0826 0,0.0793 -0.04295,0.12556 -0.03965,0.0463 -0.10243,0.0694 -0.05948,0.0231 -0.128864,0.0297 -0.06939,0.003 -0.128864,0.003 -0.09582,0 -0.191644,-0.007 -0.09582,-0.007 -0.191643,-0.007 -0.158602,0 -0.287465,0.0297 -0.128864,0.0297 -0.224686,0.0991 -0.09252,0.0694 -0.145385,0.18503 -0.04956,0.11235 -0.04956,0.28416 0,0.16852 0.01983,0.33042 0.02313,0.16191 0.02313,0.33042 0,0.15861 0.0033,0.25443 0.0066,0.0958 0.03965,0.1619 0.04295,0.0958 0.06939,0.21808 0.02643,0.12226 0.06608,0.23129 0.04295,0.10904 0.115647,0.18504 0.076,0.0727 0.221381,0.0727 0.04956,0 0.132168,-0.0132 0.08261,-0.0132 0.16521,-0.0397 0.08261,-0.0297 0.14208,-0.0727 0.05948,-0.0463 0.05948,-0.11234 0,-0.0562 -0.03304,-0.11234 -0.03304,-0.0595 -0.03304,-0.12556 0,-0.0463 0.01983,-0.0793 0.02313,-0.0363 0.05617,-0.0628 0.03635,-0.0297 0.07269,-0.0496 0.03965,-0.0231 0.076,-0.0397 0.05947,-0.076 0.14208,-0.12556 0.08591,-0.0529 0.181731,-0.0529 0.06608,0 0.12556,0.0231 0.06278,0.0231 0.115647,0.0595 0.0099,0.0595 0.0099,0.12226 z"
       style="text-align:center;text-anchor:middle;fill:#ffffff"
       id="path901" />
    <path
       d="m 16.933925,112.93976 q 0,0.0562 -0.01982,0.10574 -0.01983,0.0496 -0.03635,0.10243 -0.01322,0.0463 -0.01982,0.076 -0.0033,0.0297 -0.01322,0.0529 -0.0099,0.0198 -0.03304,0.0396 -0.01982,0.0165 -0.06608,0.0396 -0.09913,0.0529 -0.211468,0.10904 -0.109039,0.0529 -0.221382,0.0529 -0.09582,0 -0.181731,-0.043 -0.08261,-0.0463 -0.155297,-0.0991 -0.06939,-0.0562 -0.128864,-0.10243 -0.05617,-0.0463 -0.09582,-0.0463 -0.04295,0 -0.076,0.0231 -0.02974,0.0231 -0.06278,0.0496 -0.02974,0.0264 -0.06939,0.0496 -0.03635,0.0231 -0.09252,0.0231 -0.04626,0 -0.09582,0.0165 -0.04956,0.0165 -0.09913,0.0397 -0.04956,0.0198 -0.10243,0.043 -0.04956,0.0198 -0.09252,0.033 -0.148689,0.0397 -0.300682,0.0463 -0.148689,0.007 -0.300683,0.007 -0.03965,0 -0.122255,-0.003 -0.0826,0 -0.168514,-0.0165 -0.0826,-0.0132 -0.148689,-0.0463 -0.06278,-0.033 -0.06278,-0.0925 0,-0.0132 0.0033,-0.0231 -0.02313,0.0264 -0.05287,0.043 -0.02974,0.0165 -0.06608,0.0165 -0.05287,0 -0.128864,-0.0727 -0.076,-0.0727 -0.145384,-0.16851 -0.06939,-0.0958 -0.118952,-0.18834 -0.04956,-0.0958 -0.04956,-0.14208 0,-0.0363 0.01983,-0.0661 0.02313,-0.0297 0.02313,-0.0661 0,-0.0463 -0.01322,-0.0859 -0.0099,-0.043 -0.0099,-0.0892 0,-0.0595 0.02313,-0.12556 0.02313,-0.0694 0.05617,-0.13548 0.03304,-0.0694 0.06939,-0.13216 0.03635,-0.0661 0.06608,-0.12226 0.03304,-0.0661 0.09252,-0.10573 0.05948,-0.0396 0.12556,-0.0694 0.06608,-0.0297 0.132168,-0.0595 0.06608,-0.0297 0.115647,-0.0793 0.04956,0.0562 0.128863,0.0562 0.0826,0 0.161906,-0.0231 0.0793,-0.0264 0.161906,-0.0264 0.06608,0 0.12556,0.0132 0.06278,0.0132 0.128863,0.0132 0.07269,0 0.105735,-0.0165 0.03635,-0.0198 0.08921,-0.0661 0.05287,-0.0463 0.132168,-0.0694 0.0826,-0.0264 0.168514,-0.0396 0.08921,-0.0165 0.175123,-0.033 0.08921,-0.0165 0.158601,-0.0463 0.06939,-0.033 0.112343,-0.0859 0.04296,-0.0562 0.04296,-0.15199 0,-0.10574 -0.06278,-0.22138 -0.05948,-0.11896 -0.155297,-0.21478 -0.09582,-0.0991 -0.211469,-0.1619 -0.115647,-0.0628 -0.221382,-0.0628 -0.01322,0 -0.02643,0.003 -0.01322,0.003 -0.02313,0.003 -0.0793,0.0132 -0.178426,0.0198 -0.09913,0.003 -0.185035,0.0297 -0.08591,0.0231 -0.145385,0.0826 -0.05948,0.0562 -0.05948,0.16852 0,0.0661 0.0099,0.13217 0.01322,0.0628 0.01322,0.12886 0,0.0991 -0.04956,0.16521 -0.04626,0.0661 -0.122256,0.10573 -0.07269,0.0397 -0.161906,0.0562 -0.08921,0.0132 -0.171818,0.0132 -0.09913,0 -0.171818,-0.0264 -0.07269,-0.0264 -0.118951,-0.12226 -0.03635,-0.0694 -0.0793,-0.14869 -0.03965,-0.0826 -0.03965,-0.16521 0,-0.0892 0.02974,-0.16521 0.03304,-0.0793 0.07269,-0.15199 0.03965,-0.076 0.076,-0.14869 0.03965,-0.076 0.05617,-0.1619 0.02313,-0.0132 0.06278,-0.0264 0.04295,-0.0132 0.08921,-0.0264 0.04956,-0.0132 0.09252,-0.0231 0.04626,-0.0132 0.076,-0.0231 0.0793,-0.0231 0.151993,-0.0529 0.076,-0.033 0.151993,-0.0595 0.0793,-0.0264 0.155298,-0.0463 0.0793,-0.0198 0.161905,-0.0231 l 0.102431,-0.003 q 0.14208,0 0.290769,0.0264 0.148689,0.0231 0.29077,0.076 0.14208,0.0529 0.26764,0.13216 0.128864,0.076 0.227989,0.18173 0.07269,0.0793 0.118952,0.18834 0.04956,0.10574 0.076,0.22469 0.02974,0.11895 0.03965,0.24121 0.01322,0.11895 0.01322,0.22138 0,0.13877 -0.0099,0.27425 -0.0066,0.13216 -0.0066,0.27094 0,0.13217 0.01322,0.26434 0.01652,0.12886 0.03635,0.26103 0.01983,0.12886 0.03304,0.26103 0.01652,0.12886 0.01652,0.25773 0.0066,0.0793 0.01983,0.0991 0.01652,0.0165 0.03304,0.0165 0.07269,0 0.115647,-0.0429 0.04626,-0.0463 0.08261,-0.0991 0.03635,-0.0562 0.0793,-0.10243 0.04295,-0.0463 0.109039,-0.0463 0.02974,0 0.05948,0.003 0.03304,0.003 0.05947,0.0165 0.02643,0.01 0.04296,0.033 0.01652,0.0198 0.01652,0.0562 z m -1.087082,-0.82274 q 0,-0.0198 -0.0033,-0.0694 0,-0.0496 -0.0066,-0.0991 -0.0066,-0.0529 -0.02313,-0.0925 -0.01322,-0.0397 -0.04295,-0.0397 -0.0066,0 -0.01652,0.007 -0.0099,0.003 -0.01652,0.003 -0.12556,0.0694 -0.214773,0.11564 -0.08921,0.043 -0.178427,0.0727 -0.08591,0.0264 -0.185035,0.0363 -0.09913,0.01 -0.247815,0.01 -0.01982,0 -0.109039,0.0165 -0.08921,0.0165 -0.194948,0.0396 -0.105734,0.0198 -0.198252,0.043 -0.09252,0.0198 -0.115647,0.0264 -0.04295,0.0165 -0.06278,0.033 -0.01652,0.0165 -0.02643,0.0363 -0.0099,0.0198 -0.01982,0.043 -0.0099,0.0198 -0.03635,0.043 -0.03304,0.0264 -0.07269,0.043 -0.03635,0.0165 -0.06939,0.0496 -0.04956,0.0496 -0.09252,0.13217 -0.04296,0.0793 -0.04296,0.15199 0,0.0892 0.04626,0.1586 0.04626,0.0694 0.122255,0.11895 0.076,0.0496 0.171818,0.0859 0.09582,0.0363 0.191644,0.0562 0.09913,0.0198 0.188339,0.0297 0.09252,0.01 0.158602,0.01 0.0793,0 0.188339,-0.01 0.109039,-0.0132 0.218077,-0.0363 0.109039,-0.0264 0.204861,-0.0694 0.09582,-0.043 0.151993,-0.10904 0.02313,-0.0264 0.03304,-0.0463 0.0099,-0.0231 0.01983,-0.043 0.01322,-0.0231 0.02643,-0.0463 0.01652,-0.0231 0.04956,-0.0496 0.076,-0.0628 0.115647,-0.13877 0.04295,-0.076 0.06278,-0.1586 0.01982,-0.0826 0.02313,-0.17182 0.0033,-0.0892 0.0033,-0.18173 z"
       style="text-align:center;text-anchor:middle;fill:#ffffff"
       id="path903" />
    <path
       d="m 20.799838,111.10593 q 0,0.0661 -0.02643,0.11235 -0.02643,0.0463 -0.05948,0.0892 -0.02974,0.0396 -0.06278,0.0826 -0.02974,0.043 -0.03965,0.10243 -0.02974,-0.0132 -0.06278,-0.0165 -0.02974,-0.003 -0.06278,-0.003 -0.0793,0 -0.158601,0.0132 -0.076,0.01 -0.151994,0.01 -0.08921,0 -0.148689,-0.0529 -0.05617,-0.0562 -0.09252,-0.13547 -0.03304,-0.0793 -0.04626,-0.16852 -0.01322,-0.0925 -0.01322,-0.16521 0,-0.0925 0.02974,-0.18834 -0.02643,-0.01 -0.04626,-0.01 -0.04295,0 -0.06278,0.0264 -0.01652,0.0264 -0.04956,0.0264 -0.02974,0 -0.05287,-0.0198 -0.02313,-0.0231 -0.05617,-0.0231 -0.04956,0 -0.12556,0.0331 -0.07269,0.0297 -0.14208,0.0793 -0.06939,0.0496 -0.122256,0.10904 -0.04956,0.0562 -0.04956,0.10903 -0.06939,0.007 -0.132168,0.0397 -0.05947,0.0297 -0.115646,0.0661 -0.04296,0.0264 -0.07269,0.0826 -0.02974,0.0562 -0.05617,0.12226 -0.02313,0.0628 -0.04956,0.12886 -0.02313,0.0661 -0.05617,0.10904 -0.05617,0.0727 -0.09913,0.14869 -0.03965,0.0727 -0.03965,0.16521 0,0.11565 0.03635,0.2346 0.03635,0.11895 0.03635,0.24121 0,0.0793 -0.01322,0.1586 -0.0099,0.0793 -0.0099,0.15529 0,0.0925 0.03304,0.14869 0.03304,0.0562 0.08921,0.0892 0.05617,0.0297 0.128864,0.0397 0.07269,0.01 0.148689,0.01 0.0826,0 0.158602,-0.003 0.0793,-0.007 0.145384,-0.007 0.02313,0.0264 0.02643,0.0496 0.0033,0.0231 -0.0033,0.0496 -0.0033,0.0231 -0.01322,0.0496 -0.0066,0.0231 -0.0066,0.0562 0,0.0132 0.0066,0.033 0.04956,0 0.08591,-0.0231 0.03635,-0.0231 0.05287,-0.0727 0.02313,0.007 0.03965,0.0198 0.01983,0.0132 0.01983,0.0396 0,0.0198 -0.0099,0.0396 -0.0099,0.0165 -0.02313,0.0331 -0.01322,0.0165 -0.02313,0.0363 -0.0099,0.0165 -0.0099,0.0397 0,0.0132 0.0033,0.0297 0.0033,0.0132 0.0099,0.0231 -0.01652,0.0264 -0.04626,0.0363 -0.02974,0.01 -0.05948,0.01 -0.05287,0 -0.08921,-0.0165 -0.03304,-0.0165 -0.06278,-0.0364 -0.02643,-0.0198 -0.04956,-0.0363 -0.02313,-0.0165 -0.05617,-0.0165 -0.01322,0 -0.03965,0.007 -0.02643,0.007 -0.05287,0.0165 -0.02643,0.01 -0.04626,0.0264 -0.01983,0.0132 -0.01983,0.0264 0,0.0264 0.01652,0.0463 0.01983,0.0198 0.01983,0.0463 0,0.0231 -0.01652,0.0363 -0.01652,0.0132 -0.03965,0.0165 -0.02313,0.007 -0.04956,0.007 -0.02313,0.003 -0.03965,0.003 -0.128864,0 -0.257728,-0.0297 -0.125559,-0.0264 -0.254423,-0.0264 -0.05948,0 -0.118951,0.0264 -0.05948,0.0264 -0.12556,0.0264 -0.03635,0 -0.05617,-0.0165 -0.01652,-0.0132 -0.02974,-0.033 -0.01322,-0.0198 -0.02974,-0.0363 -0.01652,-0.0132 -0.04956,-0.0132 -0.06278,0 -0.125559,0.0132 -0.05948,0.0132 -0.122256,0.0264 -0.05947,0.0165 -0.122255,0.0264 -0.05948,0.0132 -0.122256,0.0132 -0.03304,0 -0.0793,-0.01 -0.04626,-0.007 -0.08921,-0.0264 -0.04295,-0.0198 -0.07269,-0.0496 -0.02974,-0.0297 -0.02974,-0.0727 0,-0.0264 0.02974,-0.0694 0.03304,-0.043 0.07269,-0.0826 0.03965,-0.0429 0.0793,-0.0727 0.03965,-0.0297 0.05948,-0.0297 0.05287,0 0.10243,0.003 0.05287,0.003 0.109038,0.003 0.08921,0 0.178427,-0.0264 0.09252,-0.0297 0.16521,-0.0826 0.076,-0.0529 0.122255,-0.13216 0.04626,-0.0793 0.04626,-0.17843 0,-0.043 -0.0066,-0.0826 -0.0066,-0.043 -0.0066,-0.0859 0,-0.0859 0.01983,-0.17181 0.01983,-0.0859 0.01983,-0.17182 0,-0.11565 -0.02643,-0.2346 -0.02313,-0.12226 -0.02313,-0.24451 0,-0.10904 0.0033,-0.21477 0.0066,-0.10904 0.0066,-0.21808 0,-0.0496 -0.0033,-0.14539 -0.0033,-0.0958 -0.02313,-0.19164 -0.01652,-0.0958 -0.05617,-0.16851 -0.03635,-0.0727 -0.102431,-0.0727 -0.07269,0 -0.145384,0.0165 -0.07269,0.0165 -0.148689,0.0165 -0.05617,0 -0.132168,-0.007 -0.076,-0.01 -0.145385,-0.033 -0.06939,-0.0264 -0.118951,-0.0727 -0.04956,-0.0463 -0.04956,-0.12225 0,-0.0826 0.02313,-0.13217 0.02313,-0.0529 0.05948,-0.0793 0.03965,-0.0264 0.08921,-0.0363 0.05287,-0.01 0.112343,-0.01 0.05287,0 0.109038,0.003 0.05617,0.003 0.109039,0.003 0.105734,0 0.208165,-0.01 0.105734,-0.0132 0.211468,-0.0132 0.07269,0 0.145385,0.007 0.07269,0.007 0.142081,0.0297 0.06278,0.0198 0.09252,0.076 0.02974,0.0529 0.05287,0.10904 0.02643,0.0562 0.05948,0.10243 0.03304,0.043 0.105734,0.043 0.03304,0 0.05948,-0.0165 0.02974,-0.0198 0.05617,-0.0429 0.02643,-0.0231 0.05287,-0.043 0.02643,-0.0198 0.06278,-0.0264 0.07269,-0.01 0.132168,-0.0463 0.06278,-0.0363 0.122256,-0.0727 0.05947,-0.0363 0.118951,-0.0661 0.06278,-0.0297 0.135472,-0.0297 0.04295,0 0.105734,-0.01 0.06608,-0.01 0.128864,-0.0264 0.06608,-0.0198 0.122256,-0.0463 0.05947,-0.0264 0.09252,-0.0595 0.08921,0.007 0.208165,0.043 0.122255,0.0363 0.231294,0.0991 0.112342,0.0595 0.194947,0.14208 0.0826,0.0826 0.09582,0.18503 0.0099,0.0628 0.03635,0.11896 0.02643,0.0562 0.05287,0.11234 0.02974,0.0529 0.05287,0.11234 0.02313,0.0562 0.02313,0.11895 z"
       style="text-align:center;text-anchor:middle;fill:#ffffff"
       id="path905" />
    <path
       d="m 24.19986,112.34501 q 0,0.10573 -0.02313,0.20155 -0.02313,0.0925 -0.05287,0.18504 -0.02974,0.0892 -0.06278,0.18503 -0.02974,0.0925 -0.04626,0.19165 -0.02974,0.16521 -0.118952,0.27425 -0.08921,0.10903 -0.214773,0.17181 -0.125559,0.0661 -0.280857,0.0958 -0.151993,0.033 -0.313898,0.0496 -0.161906,0.0165 -0.320508,0.0231 -0.155297,0.007 -0.287465,0.0231 -0.04956,-0.0364 -0.08261,-0.0793 -0.03304,-0.043 -0.06278,-0.0826 -0.02974,-0.0363 -0.06608,-0.0628 -0.03635,-0.0231 -0.09582,-0.0231 -0.01983,0 -0.03304,-0.0529 -0.0099,-0.0562 -0.01983,-0.12226 -0.0099,-0.0694 -0.02313,-0.12226 -0.0099,-0.0562 -0.02974,-0.0562 -0.076,0 -0.122255,-0.033 -0.04295,-0.033 -0.06939,-0.0826 -0.02313,-0.0529 -0.03304,-0.11565 -0.0066,-0.0628 -0.0066,-0.12226 0,-0.0463 -0.01983,-0.0859 -0.01983,-0.0397 -0.04295,-0.076 -0.02313,-0.0397 -0.04295,-0.0793 -0.01983,-0.0396 -0.01983,-0.0826 0,-0.0496 0.0033,-0.12225 0.0066,-0.076 0.0099,-0.1553 0.0066,-0.0793 0.0099,-0.1553 0.0066,-0.076 0.0066,-0.12556 0,-0.0595 0.01322,-0.0991 0.01652,-0.0397 0.03635,-0.0694 0.01982,-0.0297 0.03304,-0.0529 0.01652,-0.0231 0.01652,-0.0529 0,-0.0397 -0.01983,-0.0661 -0.01652,-0.0264 -0.01652,-0.0529 0,-0.0363 0.02313,-0.0694 0.02313,-0.0363 0.03304,-0.0727 0.03635,-0.14538 0.03635,-0.28746 0,-0.0297 -0.0033,-0.0562 0,-0.0297 -0.0033,-0.0562 -0.076,-0.0628 -0.168514,-0.0793 -0.09252,-0.0198 -0.185035,-0.0264 -0.09252,-0.01 -0.178427,-0.0231 -0.08591,-0.0132 -0.145385,-0.0694 -0.04956,-0.0463 -0.08921,-0.10243 -0.03965,-0.0595 -0.105734,-0.0793 -0.04626,-0.0165 -0.0793,-0.0429 -0.02974,-0.0297 -0.02974,-0.0826 0,-0.0793 0.04626,-0.11895 0.04956,-0.043 0.115647,-0.0661 0.06608,-0.0264 0.135472,-0.043 0.07269,-0.0198 0.122255,-0.0562 0.04956,-0.0363 0.118952,-0.0363 0.02974,0 0.05617,0.003 0.02974,0 0.05947,0 0.08261,0 0.135473,-0.0264 0.05617,-0.0297 0.08591,-0.076 0.03304,-0.0496 0.04295,-0.11234 0.01322,-0.0628 0.01322,-0.13548 0,-0.10573 -0.01322,-0.20486 -0.01322,-0.0991 -0.01322,-0.20486 0,-0.12225 0.03304,-0.22468 0.03304,-0.10243 0.125559,-0.18834 0.01983,-0.0165 0.04295,-0.043 0.02313,-0.0264 0.04956,-0.0496 0.02643,-0.0264 0.05287,-0.0429 0.02974,-0.0165 0.05948,-0.0165 0.01983,0 0.03304,0.01 0.01652,0.007 0.03304,0.0198 0.07269,0.0727 0.09252,0.10904 0.02313,0.033 0.02313,0.0793 0,0.0264 -0.0033,0.0595 0,0.0297 0,0.0793 0,0.10573 0.02643,0.20816 0.02643,0.10243 0.02643,0.17513 0,0.0628 -0.02643,0.12225 -0.02313,0.0562 -0.02313,0.11895 0,0.0463 0.01982,0.0859 0.02313,0.0364 0.04956,0.0727 0.02974,0.0363 0.05287,0.076 0.02313,0.0363 0.02313,0.0859 0.03304,0.0231 0.148689,0.043 0.115647,0.0165 0.257728,0.0297 0.14208,0.01 0.287465,0.0165 0.145385,0.007 0.241207,0.007 0.08591,0 0.132168,0.0132 0.04626,0.0132 0.076,0.0297 0.03304,0.0132 0.05948,0.0297 0.02643,0.0165 0.06939,0.0198 0.05287,0.007 0.08921,0.0297 0.03965,0.0198 0.03965,0.0826 0,0.0793 -0.04295,0.12556 -0.03965,0.0463 -0.10243,0.0694 -0.05948,0.0231 -0.128864,0.0297 -0.06939,0.003 -0.128864,0.003 -0.09582,0 -0.191643,-0.007 -0.09582,-0.007 -0.191644,-0.007 -0.158601,0 -0.287465,0.0297 -0.128864,0.0297 -0.224686,0.0991 -0.09252,0.0694 -0.145384,0.18503 -0.04956,0.11235 -0.04956,0.28416 0,0.16852 0.01983,0.33042 0.02313,0.16191 0.02313,0.33042 0,0.15861 0.0033,0.25443 0.0066,0.0958 0.03965,0.1619 0.04295,0.0958 0.06939,0.21808 0.02643,0.12226 0.06608,0.23129 0.04295,0.10904 0.115647,0.18504 0.076,0.0727 0.221381,0.0727 0.04956,0 0.132168,-0.0132 0.0826,-0.0132 0.16521,-0.0397 0.08261,-0.0297 0.142081,-0.0727 0.05947,-0.0463 0.05947,-0.11234 0,-0.0562 -0.03304,-0.11234 -0.03304,-0.0595 -0.03304,-0.12556 0,-0.0463 0.01983,-0.0793 0.02313,-0.0363 0.05617,-0.0628 0.03635,-0.0297 0.07269,-0.0496 0.03965,-0.0231 0.076,-0.0397 0.05948,-0.076 0.142081,-0.12556 0.08591,-0.0529 0.181731,-0.0529 0.06608,0 0.125559,0.0231 0.06278,0.0231 0.115647,0.0595 0.0099,0.0595 0.0099,0.12226 z"
       style="text-align:center;text-anchor:middle;fill:#ffffff"
       id="path907" />
    <path
       d="m 11.584426,121.8184 q 0,0.0562 -0.01983,0.10903 -0.01652,0.0496 -0.04626,0.0958 -0.076,0.007 -0.148689,0.01 -0.06939,0.003 -0.145384,0.003 -0.07269,0 -0.145385,-0.003 -0.07269,0 -0.145385,0 -0.10243,0 -0.201556,0.0198 -0.09582,0.0198 -0.198252,0.0198 -0.135472,0 -0.145385,-0.14208 -0.04626,0 -0.08261,0.0297 -0.03635,0.0264 -0.07269,0.0562 -0.03635,0.033 -0.0793,0.0595 -0.04295,0.0297 -0.09913,0.0297 -0.056171,0 -0.115647,-0.033 -0.056171,-0.033 -0.056171,-0.0991 0,-0.0231 0.00991,-0.043 0.013217,-0.0198 0.026434,-0.033 0.016521,-0.0165 0.029738,-0.0264 0.013217,-0.0132 0.013217,-0.0231 0,-0.0165 -0.013217,-0.0297 -0.013217,-0.0132 -0.033042,-0.0264 -0.016521,-0.0132 -0.029738,-0.0264 -0.013217,-0.0165 -0.013217,-0.0396 0,-0.0529 0.03965,-0.076 0.03965,-0.0264 0.1024306,-0.0363 0.06278,-0.01 0.135472,-0.01 0.07269,-0.003 0.14208,-0.007 0.06939,-0.003 0.122256,-0.0165 0.05287,-0.0165 0.07269,-0.0562 0.03304,-0.0595 0.05287,-0.14208 0.01983,-0.0826 0.02974,-0.17182 0.01322,-0.0892 0.01652,-0.17512 0.0066,-0.0892 0.0066,-0.1586 0,-0.14539 -0.01322,-0.28747 -0.0099,-0.14208 -0.03965,-0.28416 -0.01322,-0.0661 -0.03635,-0.12886 -0.01982,-0.0628 -0.01982,-0.12887 0,-0.043 0.01322,-0.076 0.01322,-0.033 0.02643,-0.0595 0.01652,-0.0264 0.02974,-0.0496 0.01322,-0.0264 0.01322,-0.0529 0,-0.0562 -0.03304,-0.0958 -0.03304,-0.043 -0.04956,-0.0925 -0.01652,-0.0463 -0.02313,-0.0925 -0.0033,-0.0496 -0.02313,-0.0958 -0.01652,-0.033 -0.04295,-0.0595 -0.02643,-0.0297 -0.05287,-0.0562 -0.02643,-0.0297 -0.05287,-0.0562 -0.02643,-0.0264 -0.03965,-0.0628 -0.115647,-0.01 -0.221382,-0.01 -0.1453844,0 -0.270944,0.0198 -0.1222554,0.0165 -0.2345981,0.0628 -0.1090386,0.0463 -0.2081646,0.12225 -0.095822,0.076 -0.1883393,0.19165 -0.033042,0.0396 -0.079301,0.0892 -0.046259,0.0496 -0.092518,0.10243 -0.046259,0.0496 -0.085909,0.10243 -0.036346,0.0529 -0.046259,0.10243 -0.033042,0.13217 -0.052867,0.29738 -0.016521,0.16521 -0.016521,0.30399 0,0.0463 0.00991,0.0925 0.013217,0.0463 0.026434,0.0925 0.016521,0.043 0.026434,0.0892 0.013217,0.043 0.013217,0.0925 0,0.0231 -0.013217,0.0859 -0.013217,0.0595 -0.033042,0.12226 -0.019825,0.0628 -0.042955,0.11234 -0.023129,0.0463 -0.046259,0.0463 0.00661,0.0231 0.046259,0.0628 0.03965,0.0363 0.089213,0.0727 0.052867,0.0363 0.099126,0.0628 0.049563,0.0264 0.072692,0.0264 0.029738,0 0.056171,-0.003 0.029738,-0.007 0.056171,-0.007 0.06278,0 0.1354721,0.0363 0.075997,0.033 0.1255596,0.076 0.052867,0.0396 0.06278,0.076 0.00991,0.033 -0.059476,0.033 -0.016521,0 -0.036346,0.003 -0.016521,0 -0.033042,0 -0.033042,0 -0.046259,-0.0165 -0.013217,-0.0198 -0.023129,-0.0397 -0.00991,-0.0231 -0.019825,-0.0396 -0.00991,-0.0198 -0.036346,-0.0198 -0.016521,0 -0.023129,0.0198 -0.0033,0.0198 -0.0033,0.0331 0,0.0297 0.026434,0.0628 0.026434,0.0297 0.056171,0.0628 0.033042,0.033 0.059476,0.0694 0.026434,0.033 0.026434,0.0694 0,0.0165 -0.013217,0.0231 -0.013217,0.007 -0.026434,0.007 -0.033042,0 -0.066084,-0.01 -0.029738,-0.01 -0.06278,-0.01 -0.029738,0 -0.056171,0.0231 -0.026434,0.0264 -0.069388,0.0562 -0.042955,0.0297 -0.1123428,0.0529 -0.069388,0.0264 -0.1850352,0.0264 -0.049563,0 -0.066084,-0.0363 -0.016521,-0.0364 -0.029738,-0.0826 -0.013217,-0.043 -0.029738,-0.0793 -0.016521,-0.0363 -0.066084,-0.0363 -0.026434,0 -0.042955,0.0198 -0.016521,0.0198 -0.023129,0.0396 h 0.0033 q 0.00991,0.01 0.019825,0.0297 0.013217,0.0231 0.023129,0.0496 0.00991,0.0264 0.016521,0.0496 0.00991,0.0264 0.013217,0.0396 l -0.059476,-0.003 q -0.046259,-0.003 -0.089213,0.007 -0.042955,0.01 -0.085909,0.0198 -0.03965,0.0132 -0.082605,0.0231 -0.042955,0.01 -0.085909,0.007 -0.042955,0 -0.079301,-0.0132 -0.033042,-0.01 -0.069388,-0.0264 -0.056171,-0.0264 -0.115647,-0.0297 -0.059476,-0.003 -0.1090386,-0.0132 -0.049563,-0.01 -0.082605,-0.0463 -0.029738,-0.0363 -0.029738,-0.12556 0,-0.0529 0.019825,-0.10904 0.019825,-0.0562 0.056171,-0.0991 0.036346,-0.0463 0.085909,-0.0727 0.049563,-0.0297 0.1057344,-0.0297 0.03965,0 0.075997,0.0198 0.036346,0.0165 0.075997,0.0165 0.033042,0 0.052867,-0.0198 0.023129,-0.0198 0.03965,-0.043 0.019825,-0.0264 0.03965,-0.0463 0.023129,-0.0231 0.056171,-0.0297 0.0033,-0.17513 0.029738,-0.34364 0.026434,-0.17182 0.026434,-0.34694 0,-0.17182 -0.033042,-0.33703 -0.029738,-0.16851 -0.029738,-0.34033 0,-0.10574 0.026434,-0.20486 0.029738,-0.0991 0.029738,-0.20486 0,-0.0562 -0.026434,-0.10574 -0.023129,-0.0529 -0.023129,-0.10904 0,-0.043 0.023129,-0.0661 0.023129,-0.0231 0.029738,-0.0595 h -0.00991 q -0.042955,0 -0.042955,-0.0463 0,-0.0463 0.029738,-0.0463 0.00991,0 0.026434,0.01 0,-0.0264 -0.016521,-0.0529 -0.013217,-0.0264 -0.033042,-0.0529 -0.016521,-0.0264 -0.033042,-0.0529 -0.016521,-0.0297 -0.016521,-0.0595 0.036346,-0.0694 0.046259,-0.12225 0.013217,-0.0529 0.013217,-0.10574 0,-0.0463 -0.00661,-0.0925 -0.0033,-0.0496 -0.0033,-0.11565 0,-0.0727 0.029738,-0.13878 0.029738,-0.0661 0.029738,-0.13877 0,-0.043 -0.019825,-0.0595 -0.019825,-0.0165 -0.049563,-0.0165 -0.016521,0 -0.042955,0.007 0,-0.043 -0.00661,-0.11565 -0.00661,-0.076 -0.026434,-0.14538 -0.019825,-0.0694 -0.059475,-0.11896 -0.036346,-0.0529 -0.099126,-0.0529 -0.03965,0 -0.079301,0.007 -0.036346,0.003 -0.075997,0.003 -0.06278,0 -0.1222554,-0.033 -0.056171,-0.033 -0.099126,-0.0859 -0.042955,-0.0529 -0.069388,-0.11565 -0.026434,-0.0628 -0.026434,-0.12225 0,-0.0661 0.03965,-0.0826 0.03965,-0.0165 0.089213,-0.0165 0.026434,0 0.049563,0.003 0.023129,0 0.046259,0 0.036346,0 0.075997,-0.007 0.03965,-0.01 0.066084,-0.0363 0.1024302,-0.007 0.2015562,-0.0165 0.099126,-0.01 0.2015561,-0.01 0.056171,0 0.099126,0.0264 0.042955,0.0264 0.082605,0.0628 0.042955,0.033 0.085909,0.0628 0.042955,0.0297 0.095822,0.0396 0,0.0727 -0.013217,0.14208 -0.00991,0.0694 -0.00991,0.14208 0,0.0694 0.026434,0.13217 0.029738,0.0595 0.029738,0.12556 0,0.0198 -0.013217,0.0231 -0.013217,0 -0.029738,0.003 -0.013217,0.003 -0.026434,0.0132 -0.00991,0.01 -0.00991,0.0463 0,0.0297 0.00991,0.0562 0.013217,0.0264 0.026434,0.0529 0.013217,0.0231 0.023129,0.0496 0.013217,0.0264 0.013217,0.0562 0,0.0529 -0.019825,0.0991 -0.016521,0.0463 -0.016521,0.0991 0,0.043 0.00991,0.13548 0.00991,0.0925 0.033042,0.18833 0.023129,0.0925 0.059476,0.16521 0.036346,0.0694 0.089213,0.0694 0.069388,0 0.132168,-0.033 0.06278,-0.033 0.1189512,-0.0793 0.059476,-0.0496 0.1123427,-0.10243 0.052867,-0.0562 0.099126,-0.0991 0.029738,-0.0264 0.115647,-0.0529 0.085909,-0.0264 0.1850351,-0.0463 0.1024302,-0.0231 0.1949478,-0.0363 0.095822,-0.0132 0.1387764,-0.0132 0.109039,0 0.155297,0.0132 0.04956,0.0132 0.08261,0.0396 0.03304,0.0231 0.06608,0.0562 0.03304,0.0331 0.112343,0.0727 0.03304,0.0165 0.06278,0.0231 0.03304,0.003 0.05947,0.01 0.02974,0.003 0.05617,0.0198 0.02974,0.0132 0.05617,0.0463 0.04295,0.0562 0.105735,0.12226 0.06608,0.0628 0.122255,0.13547 0.05617,0.0694 0.09582,0.14538 0.04295,0.076 0.04295,0.152 0,0.0496 -0.01983,0.0991 -0.01652,0.0496 -0.01652,0.0991 0,0.0363 0.01652,0.0661 0.01652,0.0264 0.01652,0.0628 0,0.0396 -0.0033,0.0991 -0.0033,0.0595 -0.01322,0.12556 -0.0099,0.0628 -0.02643,0.12225 -0.01322,0.0562 -0.03635,0.0859 0.04956,0.0826 0.06608,0.17513 0.01652,0.0925 0.01652,0.18503 0,0.11565 -0.01322,0.23129 -0.0099,0.11235 -0.0099,0.22799 0,0.1553 0.04626,0.24121 0.04626,0.0826 0.112343,0.12886 0.06939,0.043 0.148689,0.0628 0.0826,0.0198 0.148688,0.0496 0.06939,0.0264 0.115647,0.0793 0.04626,0.0496 0.04626,0.1553 z"
       style="text-align:center;text-anchor:middle;fill:#ffffff"
       id="path909" />
    <path
       d="m 15.090182,121.28642 q 0,0.0892 -0.02974,0.15199 -0.02643,0.0628 -0.07269,0.11235 -0.04296,0.0496 -0.102431,0.0925 -0.05617,0.043 -0.115647,0.0925 -0.04626,0.0397 -0.08261,0.0595 -0.03635,0.0198 -0.07269,0.033 -0.03304,0.0132 -0.07269,0.0264 -0.03635,0.0132 -0.08591,0.0363 -0.06608,0.033 -0.112342,0.0628 -0.04295,0.0264 -0.08921,0.0496 -0.04295,0.0231 -0.09582,0.0363 -0.05287,0.0165 -0.132168,0.0264 -0.132168,0.0165 -0.267641,0.0397 -0.132168,0.0231 -0.264336,0.0231 -0.02643,0 -0.05617,-0.0132 -0.02643,-0.01 -0.06278,-0.0231 -0.03635,-0.01 -0.0826,-0.0231 -0.04295,-0.01 -0.105734,-0.01 -0.06608,0 -0.105734,-0.0198 -0.03965,-0.0198 -0.07269,-0.0463 -0.02974,-0.0264 -0.06278,-0.0562 -0.03304,-0.033 -0.08591,-0.0562 -0.198252,-0.0892 -0.337028,-0.21478 -0.138777,-0.12556 -0.237902,-0.28085 -0.09913,-0.1553 -0.16521,-0.33703 -0.06608,-0.18173 -0.112343,-0.37999 -0.03635,-0.13877 -0.03635,-0.27755 0,-0.18173 0.08591,-0.33703 -0.03304,-0.0925 -0.03304,-0.17842 0,-0.0628 0.03635,-0.18504 0.03635,-0.12556 0.09252,-0.25112 0.05948,-0.12556 0.125559,-0.22468 0.06939,-0.10243 0.128864,-0.12556 0.04626,-0.0165 0.06278,-0.0264 0.01983,-0.0132 0.01983,-0.0661 0,-0.0397 0.02974,-0.0661 0.03304,-0.0264 0.076,-0.043 0.04626,-0.0165 0.08921,-0.0297 0.04626,-0.0132 0.076,-0.0264 0.122256,-0.0595 0.231294,-0.0991 0.112343,-0.043 0.221382,-0.0694 0.112342,-0.0297 0.231293,-0.043 0.118952,-0.0132 0.254424,-0.0132 0.07269,0 0.14208,0.0198 0.06939,0.0198 0.132168,0.0529 0.06608,0.0297 0.128864,0.0694 0.06278,0.0363 0.122256,0.0727 h -0.0033 q 0.04956,0.007 0.09252,0.0297 0.04626,0.0198 0.09582,0.0264 0.04626,0.0562 0.118951,0.10904 0.076,0.0496 0.145385,0.10573 0.07269,0.0562 0.122255,0.12226 0.05287,0.0628 0.05287,0.14538 0,0.0132 -0.0033,0.0264 0,0.0132 -0.0033,0.0297 l 0.01322,-0.0165 q 0.01322,0.01 0.02313,0.033 0.01322,0.0231 0.02313,0.0529 0.0099,0.0264 0.01652,0.0562 0.0066,0.0264 0.0099,0.043 0.02643,0.0429 0.06939,0.0694 0.04626,0.0264 0.07269,0.0727 -0.03304,0.033 -0.03304,0.0859 0,0.0562 0.02313,0.11234 0.02313,0.0529 0.02313,0.10904 0,0.0661 -0.0066,0.12886 -0.0066,0.0595 -0.0066,0.12556 0,0.0496 -0.03965,0.076 -0.03635,0.0264 -0.08261,0.0463 -0.04295,0.0198 -0.0793,0.0397 -0.03635,0.0198 -0.03635,0.0562 0,0.0264 -0.03304,0.0264 -0.02974,-0.003 -0.04956,-0.003 -0.145385,0 -0.290769,-0.0363 -0.142081,-0.0363 -0.284161,-0.0363 -0.155298,0 -0.307291,0.0231 -0.151993,0.0198 -0.307291,0.0198 -0.115647,0 -0.231294,-0.007 -0.112342,-0.007 -0.227989,-0.007 -0.02974,0 -0.112343,0.0132 -0.08261,0.01 -0.175123,0.0297 -0.08921,0.0165 -0.171818,0.043 -0.0826,0.0231 -0.115647,0.0463 -0.0033,0.0165 -0.0033,0.0463 0,0.1553 0.08921,0.32051 0.09252,0.16521 0.241207,0.30068 0.148689,0.13547 0.333724,0.22469 0.185035,0.0892 0.373374,0.0892 0.109039,0 0.214773,0.01 0.109039,0.007 0.211469,0.0463 0.08921,-0.043 0.161906,-0.0991 0.076,-0.0562 0.145385,-0.11895 0.06939,-0.0628 0.135472,-0.12886 0.06608,-0.0661 0.135472,-0.13217 0.01322,-0.0132 0.06278,-0.0231 0.05287,-0.0132 0.112343,-0.0198 0.05948,-0.01 0.112342,-0.0132 0.05617,-0.007 0.076,-0.007 0.076,0 0.142081,0.0231 0.01983,0.076 0.01983,0.14869 z m -0.49563,-1.34151 q 0,-0.0496 -0.01652,-0.0958 -0.01652,-0.0463 -0.02643,-0.0958 -0.01652,-0.0925 -0.01652,-0.17843 0,-0.0892 -0.02643,-0.17842 h -0.0033 q 0,0.0198 -0.01322,0.0396 -0.01322,0.0165 -0.03635,0.0165 -0.03965,0 -0.076,-0.0198 -0.03635,-0.0198 -0.06278,-0.0496 -0.125559,-0.0562 -0.22799,-0.10573 -0.09913,-0.0496 -0.201556,-0.0859 -0.09913,-0.0396 -0.214773,-0.0595 -0.112343,-0.0231 -0.261032,-0.0231 -0.01322,0 -0.02643,0.003 -0.0099,0 -0.01983,0.01 l 0.01652,0.0363 -0.02643,0.007 q -0.08921,0.0165 -0.148689,0.0331 -0.05617,0.0132 -0.10243,0.0396 -0.04626,0.0264 -0.09252,0.0661 -0.04295,0.0363 -0.112342,0.0958 -0.03304,0.0297 -0.07269,0.0463 -0.03635,0.0132 -0.076,0.0264 -0.03635,0.01 -0.07269,0.0231 -0.03304,0.0132 -0.05617,0.043 -0.02313,0.0826 -0.06939,0.1619 -0.04296,0.076 -0.04296,0.16191 0,0.0496 0.03965,0.0892 0.04296,0.0363 0.105735,0.0628 0.06608,0.0264 0.14208,0.0463 0.0793,0.0198 0.155298,0.0297 0.076,0.01 0.138776,0.0165 0.06608,0.003 0.10243,0.003 0.12556,0 0.247815,-0.0231 0.122256,-0.0264 0.247815,-0.0264 0.128864,0 0.257728,0.0132 0.128864,0.01 0.257727,0.01 0.03304,0 0.09913,-0.003 0.06608,-0.003 0.128864,-0.0165 0.06608,-0.0165 0.112343,-0.043 0.04956,-0.0297 0.04956,-0.076 z"
       style="text-align:center;text-anchor:middle;fill:#ffffff"
       id="path911" />
    <path
       d="m 19.213823,119.56493 q 0,0.0661 -0.02643,0.11234 -0.02643,0.0463 -0.05947,0.0892 -0.02974,0.0396 -0.06278,0.0826 -0.02974,0.043 -0.03965,0.10243 -0.02974,-0.0132 -0.06278,-0.0165 -0.02974,-0.003 -0.06278,-0.003 -0.0793,0 -0.158602,0.0132 -0.076,0.01 -0.151993,0.01 -0.08921,0 -0.148689,-0.0529 -0.05617,-0.0562 -0.09252,-0.13547 -0.03304,-0.0793 -0.04626,-0.16852 -0.01322,-0.0925 -0.01322,-0.16521 0,-0.0925 0.02974,-0.18834 -0.02643,-0.01 -0.04626,-0.01 -0.04295,0 -0.06278,0.0264 -0.01652,0.0264 -0.04956,0.0264 -0.02974,0 -0.05287,-0.0198 -0.02313,-0.0231 -0.05617,-0.0231 -0.04956,0 -0.12556,0.033 -0.07269,0.0297 -0.142081,0.0793 -0.06939,0.0496 -0.122255,0.10904 -0.04956,0.0562 -0.04956,0.10903 -0.06939,0.007 -0.132168,0.0397 -0.05948,0.0297 -0.115647,0.0661 -0.04295,0.0264 -0.07269,0.0826 -0.02974,0.0562 -0.05617,0.12226 -0.02313,0.0628 -0.04956,0.12886 -0.02313,0.0661 -0.05617,0.10904 -0.05617,0.0727 -0.09913,0.14869 -0.03965,0.0727 -0.03965,0.16521 0,0.11565 0.03635,0.2346 0.03635,0.11895 0.03635,0.24121 0,0.0793 -0.01322,0.1586 -0.0099,0.0793 -0.0099,0.15529 0,0.0925 0.03304,0.14869 0.03304,0.0562 0.08921,0.0892 0.05617,0.0297 0.128864,0.0396 0.07269,0.01 0.148689,0.01 0.0826,0 0.158601,-0.003 0.0793,-0.007 0.145385,-0.007 0.02313,0.0264 0.02643,0.0496 0.0033,0.0231 -0.0033,0.0496 -0.0033,0.0231 -0.01322,0.0496 -0.0066,0.0231 -0.0066,0.0562 0,0.0132 0.0066,0.033 0.04956,0 0.08591,-0.0231 0.03635,-0.0231 0.05287,-0.0727 0.02313,0.007 0.03965,0.0198 0.01983,0.0132 0.01983,0.0397 0,0.0198 -0.0099,0.0396 -0.0099,0.0165 -0.02313,0.0331 -0.01322,0.0165 -0.02313,0.0363 -0.0099,0.0165 -0.0099,0.0397 0,0.0132 0.0033,0.0297 0.0033,0.0132 0.0099,0.0231 -0.01652,0.0264 -0.04626,0.0363 -0.02974,0.01 -0.05948,0.01 -0.05287,0 -0.08921,-0.0165 -0.03304,-0.0165 -0.06278,-0.0363 -0.02643,-0.0198 -0.04956,-0.0363 -0.02313,-0.0165 -0.05617,-0.0165 -0.01322,0 -0.03965,0.007 -0.02643,0.007 -0.05287,0.0165 -0.02643,0.01 -0.04626,0.0264 -0.01982,0.0132 -0.01982,0.0264 0,0.0264 0.01652,0.0463 0.01983,0.0198 0.01983,0.0463 0,0.0231 -0.01652,0.0363 -0.01652,0.0132 -0.03965,0.0165 -0.02313,0.007 -0.04956,0.007 -0.02313,0.003 -0.03965,0.003 -0.128863,0 -0.257727,-0.0297 -0.12556,-0.0264 -0.254424,-0.0264 -0.05947,0 -0.118951,0.0264 -0.05947,0.0264 -0.125559,0.0264 -0.03635,0 -0.05617,-0.0165 -0.01652,-0.0132 -0.02974,-0.033 -0.01322,-0.0198 -0.02974,-0.0363 -0.01652,-0.0132 -0.04956,-0.0132 -0.06278,0 -0.12556,0.0132 -0.05947,0.0132 -0.122255,0.0264 -0.05948,0.0165 -0.122256,0.0264 -0.05947,0.0132 -0.122255,0.0132 -0.03304,0 -0.0793,-0.01 -0.04626,-0.007 -0.08921,-0.0264 -0.04296,-0.0198 -0.07269,-0.0496 -0.02974,-0.0297 -0.02974,-0.0727 0,-0.0264 0.02974,-0.0694 0.03304,-0.043 0.07269,-0.0826 0.03965,-0.043 0.0793,-0.0727 0.03965,-0.0297 0.05948,-0.0297 0.05287,0 0.10243,0.003 0.05287,0.003 0.109039,0.003 0.08921,0 0.178427,-0.0264 0.09252,-0.0297 0.16521,-0.0826 0.076,-0.0529 0.122255,-0.13216 0.04626,-0.0793 0.04626,-0.17843 0,-0.043 -0.0066,-0.0826 -0.0066,-0.0429 -0.0066,-0.0859 0,-0.0859 0.01983,-0.17181 0.01983,-0.0859 0.01983,-0.17182 0,-0.11565 -0.02643,-0.2346 -0.02313,-0.12226 -0.02313,-0.24451 0,-0.10904 0.0033,-0.21477 0.0066,-0.10904 0.0066,-0.21808 0,-0.0496 -0.0033,-0.14539 -0.0033,-0.0958 -0.02313,-0.19164 -0.01652,-0.0958 -0.05617,-0.16851 -0.03635,-0.0727 -0.10243,-0.0727 -0.07269,0 -0.145385,0.0165 -0.07269,0.0165 -0.148689,0.0165 -0.05617,0 -0.132168,-0.007 -0.076,-0.01 -0.145385,-0.033 -0.06939,-0.0264 -0.118951,-0.0727 -0.04956,-0.0463 -0.04956,-0.12225 0,-0.0826 0.02313,-0.13217 0.02313,-0.0529 0.05948,-0.0793 0.03965,-0.0264 0.08921,-0.0363 0.05287,-0.01 0.112342,-0.01 0.05287,0 0.109039,0.003 0.05617,0.003 0.109039,0.003 0.105734,0 0.208164,-0.01 0.105734,-0.0132 0.211469,-0.0132 0.07269,0 0.145385,0.007 0.07269,0.007 0.14208,0.0297 0.06278,0.0198 0.09252,0.076 0.02974,0.0529 0.05287,0.10904 0.02643,0.0562 0.05948,0.10243 0.03304,0.043 0.105734,0.043 0.03304,0 0.05948,-0.0165 0.02974,-0.0198 0.05617,-0.043 0.02643,-0.0231 0.05287,-0.043 0.02643,-0.0198 0.06278,-0.0264 0.07269,-0.01 0.132168,-0.0463 0.06278,-0.0363 0.122255,-0.0727 0.05948,-0.0363 0.118951,-0.0661 0.06278,-0.0297 0.135473,-0.0297 0.04295,0 0.105734,-0.01 0.06608,-0.01 0.128864,-0.0264 0.06608,-0.0198 0.122255,-0.0463 0.05948,-0.0264 0.09252,-0.0595 0.08921,0.007 0.208164,0.043 0.122256,0.0363 0.231294,0.0991 0.112343,0.0595 0.194948,0.14208 0.0826,0.0826 0.09582,0.18503 0.0099,0.0628 0.03635,0.11896 0.02643,0.0562 0.05287,0.11234 0.02974,0.0529 0.05287,0.11234 0.02313,0.0562 0.02313,0.11895 z"
       style="text-align:center;text-anchor:middle;fill:#ffffff"
       id="path913" />
    <path
       d="m 22.703057,121.28642 q 0,0.0892 -0.02974,0.15199 -0.02643,0.0628 -0.07269,0.11235 -0.04295,0.0496 -0.102431,0.0925 -0.05617,0.043 -0.115647,0.0925 -0.04626,0.0397 -0.08261,0.0595 -0.03635,0.0198 -0.07269,0.033 -0.03304,0.0132 -0.07269,0.0264 -0.03635,0.0132 -0.08591,0.0363 -0.06608,0.033 -0.112342,0.0628 -0.04295,0.0264 -0.08921,0.0496 -0.04295,0.0231 -0.09582,0.0363 -0.05287,0.0165 -0.132168,0.0264 -0.132168,0.0165 -0.267641,0.0397 -0.132168,0.0231 -0.264336,0.0231 -0.02643,0 -0.05617,-0.0132 -0.02643,-0.01 -0.06278,-0.0231 -0.03635,-0.01 -0.08261,-0.0231 -0.04295,-0.01 -0.105734,-0.01 -0.06608,0 -0.105734,-0.0198 -0.03965,-0.0198 -0.07269,-0.0463 -0.02974,-0.0264 -0.06278,-0.0562 -0.03304,-0.033 -0.08591,-0.0562 -0.198252,-0.0892 -0.337028,-0.21478 -0.138777,-0.12556 -0.237902,-0.28085 -0.09913,-0.1553 -0.16521,-0.33703 -0.06608,-0.18173 -0.112343,-0.37999 -0.03635,-0.13877 -0.03635,-0.27755 0,-0.18173 0.08591,-0.33703 -0.03304,-0.0925 -0.03304,-0.17842 0,-0.0628 0.03635,-0.18504 0.03635,-0.12556 0.09252,-0.25112 0.05948,-0.12556 0.125559,-0.22468 0.06939,-0.10243 0.128864,-0.12556 0.04626,-0.0165 0.06278,-0.0264 0.01982,-0.0132 0.01982,-0.0661 0,-0.0397 0.02974,-0.0661 0.03304,-0.0264 0.076,-0.043 0.04626,-0.0165 0.08921,-0.0297 0.04626,-0.0132 0.076,-0.0264 0.122256,-0.0595 0.231294,-0.0991 0.112343,-0.043 0.221382,-0.0694 0.112342,-0.0297 0.231293,-0.043 0.118952,-0.0132 0.254424,-0.0132 0.07269,0 0.14208,0.0198 0.06939,0.0198 0.132168,0.0529 0.06608,0.0297 0.128864,0.0694 0.06278,0.0363 0.122255,0.0727 h -0.0033 q 0.04956,0.007 0.09252,0.0297 0.04626,0.0198 0.09582,0.0264 0.04626,0.0562 0.118951,0.10904 0.076,0.0496 0.145385,0.10573 0.07269,0.0562 0.122255,0.12226 0.05287,0.0628 0.05287,0.14538 0,0.0132 -0.0033,0.0264 0,0.0132 -0.0033,0.0297 l 0.01322,-0.0165 q 0.01322,0.01 0.02313,0.033 0.01322,0.0231 0.02313,0.0529 0.0099,0.0264 0.01652,0.0562 0.0066,0.0264 0.0099,0.043 0.02643,0.0429 0.06939,0.0694 0.04626,0.0264 0.07269,0.0727 -0.03304,0.033 -0.03304,0.0859 0,0.0562 0.02313,0.11234 0.02313,0.0529 0.02313,0.10904 0,0.0661 -0.0066,0.12886 -0.0066,0.0595 -0.0066,0.12556 0,0.0496 -0.03965,0.076 -0.03635,0.0264 -0.08261,0.0463 -0.04295,0.0198 -0.0793,0.0397 -0.03635,0.0198 -0.03635,0.0562 0,0.0264 -0.03304,0.0264 -0.02974,-0.003 -0.04956,-0.003 -0.145385,0 -0.290769,-0.0363 -0.142081,-0.0363 -0.284161,-0.0363 -0.155298,0 -0.307291,0.0231 -0.151993,0.0198 -0.307291,0.0198 -0.115647,0 -0.231294,-0.007 -0.112342,-0.007 -0.227989,-0.007 -0.02974,0 -0.112343,0.0132 -0.08261,0.01 -0.175123,0.0297 -0.08921,0.0165 -0.171818,0.043 -0.08261,0.0231 -0.115647,0.0463 -0.0033,0.0165 -0.0033,0.0463 0,0.1553 0.08921,0.32051 0.09252,0.16521 0.241207,0.30068 0.148689,0.13547 0.333724,0.22469 0.185035,0.0892 0.373374,0.0892 0.109039,0 0.214773,0.01 0.109039,0.007 0.211469,0.0463 0.08921,-0.043 0.161906,-0.0991 0.076,-0.0562 0.145385,-0.11895 0.06939,-0.0628 0.135472,-0.12886 0.06608,-0.0661 0.135472,-0.13217 0.01322,-0.0132 0.06278,-0.0231 0.05287,-0.0132 0.112343,-0.0198 0.05947,-0.01 0.112342,-0.0132 0.05617,-0.007 0.076,-0.007 0.076,0 0.142081,0.0231 0.01983,0.076 0.01983,0.14869 z m -0.49563,-1.34151 q 0,-0.0496 -0.01652,-0.0958 -0.01652,-0.0463 -0.02643,-0.0958 -0.01652,-0.0925 -0.01652,-0.17843 0,-0.0892 -0.02643,-0.17842 h -0.0033 q 0,0.0198 -0.01322,0.0396 -0.01322,0.0165 -0.03635,0.0165 -0.03965,0 -0.076,-0.0198 -0.03635,-0.0198 -0.06278,-0.0496 -0.125559,-0.0562 -0.22799,-0.10573 -0.09913,-0.0496 -0.201556,-0.0859 -0.09913,-0.0396 -0.214773,-0.0595 -0.112343,-0.0231 -0.261032,-0.0231 -0.01322,0 -0.02643,0.003 -0.0099,0 -0.01983,0.01 l 0.01652,0.0363 -0.02643,0.007 q -0.08921,0.0165 -0.148689,0.0331 -0.05617,0.0132 -0.10243,0.0396 -0.04626,0.0264 -0.09252,0.0661 -0.04295,0.0363 -0.112342,0.0958 -0.03304,0.0297 -0.07269,0.0463 -0.03635,0.0132 -0.076,0.0264 -0.03635,0.01 -0.07269,0.0231 -0.03304,0.0132 -0.05617,0.043 -0.02313,0.0826 -0.06939,0.1619 -0.04295,0.076 -0.04295,0.16191 0,0.0496 0.03965,0.0892 0.04295,0.0363 0.105735,0.0628 0.06608,0.0264 0.14208,0.0463 0.0793,0.0198 0.155298,0.0297 0.076,0.01 0.138776,0.0165 0.06608,0.003 0.10243,0.003 0.12556,0 0.247815,-0.0231 0.122256,-0.0264 0.247815,-0.0264 0.128864,0 0.257728,0.0132 0.128864,0.01 0.257727,0.01 0.03304,0 0.09913,-0.003 0.06608,-0.003 0.128864,-0.0165 0.06608,-0.0165 0.112343,-0.043 0.04956,-0.0297 0.04956,-0.076 z"
       style="text-align:center;text-anchor:middle;fill:#ffffff"
       id="path915" />
  </g>
</svg>
